<svg width="32" height="32" viewBox="0 0 32 32" fill="none" xmlns="http://www.w3.org/2000/svg">
<mask id="mask0_188_6218" style="mask-type:alpha" maskUnits="userSpaceOnUse" x="0" y="0" width="32" height="32">
<path fill-rule="evenodd" clip-rule="evenodd" d="M15.9468 0C7.13962 0 0 7.16341 0 16V16C0 24.8366 7.13962 32 15.9468 32V32C24.7541 32 31.8938 24.8366 31.8938 16V16C31.8938 7.16341 24.7541 0 15.9468 0Z" fill="white"/>
</mask>
<g mask="url(#mask0_188_6218)">
<path fill-rule="evenodd" clip-rule="evenodd" d="M0 32H60.598V0H0V32Z" fill="white"/>
<path fill-rule="evenodd" clip-rule="evenodd" d="M0 2.46155H60.598V0H0V2.46155Z" fill="#B22234"/>
<path fill-rule="evenodd" clip-rule="evenodd" d="M0 7.3844H60.598V4.92285H0V7.3844Z" fill="#B22234"/>
<path fill-rule="evenodd" clip-rule="evenodd" d="M0 12.3077H60.598V9.84619H0V12.3077Z" fill="#B22234"/>
<path fill-rule="evenodd" clip-rule="evenodd" d="M0 17.2305H60.598V14.769H0V17.2305Z" fill="#B22234"/>
<path fill-rule="evenodd" clip-rule="evenodd" d="M0 22.1539H60.598V19.6924H0V22.1539Z" fill="#B22234"/>
<path fill-rule="evenodd" clip-rule="evenodd" d="M0 27.0768H60.598V24.6152H0V27.0768Z" fill="#B22234"/>
<path fill-rule="evenodd" clip-rule="evenodd" d="M0 32H60.598V29.5386H0V32Z" fill="#B22234"/>
<path fill-rule="evenodd" clip-rule="evenodd" d="M0 17.2307H24.2392V0H0V17.2307Z" fill="#3C3B6E"/>
<path fill-rule="evenodd" clip-rule="evenodd" d="M1.13882 1.39884L1.71621 1.81975L1.49561 2.50081L2.0731 2.07991L2.65048 2.50081L2.42999 1.81964L3.00726 1.39884H2.29359L2.0731 0.717773L1.8525 1.39884H1.13882Z" fill="white"/>
<path fill-rule="evenodd" clip-rule="evenodd" d="M5.15741 1.39884L5.7349 1.81975L5.51419 2.50081L6.09168 2.07991L6.66906 2.50081L6.44857 1.81964L7.02585 1.39884H6.31217L6.09168 0.717773L5.87108 1.39884H5.15741Z" fill="white"/>
<path fill-rule="evenodd" clip-rule="evenodd" d="M9.17599 1.39884L9.75348 1.81975L9.53289 2.50081L10.1103 2.07991L10.6878 2.50081L10.4672 1.81964L11.0445 1.39884H10.3308L10.1103 0.717773L9.88978 1.39884H9.17599Z" fill="white"/>
<path fill-rule="evenodd" clip-rule="evenodd" d="M13.1947 1.39884L13.7721 1.81975L13.5515 2.50081L14.1288 2.07991L14.7063 2.50081L14.4858 1.81964L15.0631 1.39884H14.3494L14.1288 0.717773L13.9083 1.39884H13.1947Z" fill="white"/>
<path fill-rule="evenodd" clip-rule="evenodd" d="M17.2133 1.39884L17.7906 1.81975L17.57 2.50081L18.1474 2.07991L18.7249 2.50081L18.5044 1.81964L19.0817 1.39884H18.368L18.1474 0.717773L17.9269 1.39884H17.2133Z" fill="white"/>
<path fill-rule="evenodd" clip-rule="evenodd" d="M21.2318 1.39884L21.8092 1.81975L21.5886 2.50081L22.166 2.07991L22.7435 2.50081L22.523 1.81964L23.1003 1.39884H22.3866L22.166 0.717773L21.9455 1.39884H21.2318Z" fill="white"/>
<path fill-rule="evenodd" clip-rule="evenodd" d="M3.14807 3.12687L3.72556 3.54777L3.50486 4.22884L4.08234 3.80793L4.65983 4.22884L4.43923 3.54767L5.01662 3.12687H4.30284L4.08234 2.4458L3.86185 3.12687H3.14807Z" fill="white"/>
<path fill-rule="evenodd" clip-rule="evenodd" d="M7.16678 3.12687L7.74416 3.54777L7.52356 4.22884L8.10094 3.80793L8.67843 4.22884L8.45794 3.54767L9.03522 3.12687H8.32154L8.10094 2.4458L7.88045 3.12687H7.16678Z" fill="white"/>
<path fill-rule="evenodd" clip-rule="evenodd" d="M11.1854 3.12687L11.7629 3.54777L11.5421 4.22884L12.1196 3.80793L12.697 4.22884L12.4765 3.54767L13.0538 3.12687H12.3401L12.1196 2.4458L11.899 3.12687H11.1854Z" fill="white"/>
<path fill-rule="evenodd" clip-rule="evenodd" d="M15.2039 3.12687L15.7813 3.54777L15.5607 4.22884L16.1382 3.80793L16.7156 4.22884L16.4951 3.54767L17.0724 3.12687H16.3587L16.1382 2.4458L15.9176 3.12687H15.2039Z" fill="white"/>
<path fill-rule="evenodd" clip-rule="evenodd" d="M19.2225 3.12687L19.7999 3.54777L19.5793 4.22884L20.1568 3.80793L20.7342 4.22884L20.5137 3.54767L21.0909 3.12687H20.3773L20.1568 2.4458L19.9362 3.12687H19.2225Z" fill="white"/>
<path fill-rule="evenodd" clip-rule="evenodd" d="M1.13882 4.85489L1.71621 5.2758L1.49561 5.95687L2.0731 5.53596L2.65048 5.95687L2.42999 5.2758L3.00726 4.85489H2.29359L2.0731 4.17383L1.8525 4.85489H1.13882Z" fill="white"/>
<path fill-rule="evenodd" clip-rule="evenodd" d="M5.15741 4.85489L5.7349 5.2758L5.51419 5.95687L6.09168 5.53596L6.66906 5.95687L6.44857 5.2758L7.02585 4.85489H6.31217L6.09168 4.17383L5.87108 4.85489H5.15741Z" fill="white"/>
<path fill-rule="evenodd" clip-rule="evenodd" d="M9.17599 4.85489L9.75348 5.2758L9.53289 5.95687L10.1103 5.53596L10.6878 5.95687L10.4672 5.2758L11.0445 4.85489H10.3308L10.1103 4.17383L9.88978 4.85489H9.17599Z" fill="white"/>
<path fill-rule="evenodd" clip-rule="evenodd" d="M13.1947 4.85489L13.7721 5.2758L13.5515 5.95687L14.1288 5.53596L14.7063 5.95687L14.4858 5.2758L15.0631 4.85489H14.3494L14.1288 4.17383L13.9083 4.85489H13.1947Z" fill="white"/>
<path fill-rule="evenodd" clip-rule="evenodd" d="M17.2133 4.85489L17.7906 5.2758L17.57 5.95687L18.1474 5.53596L18.7249 5.95687L18.5044 5.2758L19.0817 4.85489H18.368L18.1474 4.17383L17.9269 4.85489H17.2133Z" fill="white"/>
<path fill-rule="evenodd" clip-rule="evenodd" d="M21.2318 4.85489L21.8092 5.2758L21.5886 5.95687L22.166 5.53596L22.7435 5.95687L22.523 5.2758L23.1003 4.85489H22.3866L22.166 4.17383L21.9455 4.85489H21.2318Z" fill="white"/>
<path fill-rule="evenodd" clip-rule="evenodd" d="M3.19769 6.58878L3.77507 7.00969L3.55448 7.69075L4.13197 7.26995L4.70935 7.69075L4.48886 7.00969L5.06613 6.58878H4.35246L4.13197 5.90771L3.91137 6.58878H3.19769Z" fill="white"/>
<path fill-rule="evenodd" clip-rule="evenodd" d="M7.21628 6.58878L7.79377 7.00969L7.57306 7.69075L8.15055 7.26995L8.72793 7.69075L8.50744 7.00969L9.08482 6.58878H8.37104L8.15055 5.90771L7.93006 6.58878H7.21628Z" fill="white"/>
<path fill-rule="evenodd" clip-rule="evenodd" d="M11.235 6.58878L11.8124 7.00969L11.5918 7.69075L12.1692 7.26995L12.7466 7.69075L12.526 7.00969L13.1034 6.58878H12.3897L12.1692 5.90771L11.9487 6.58878H11.235Z" fill="white"/>
<path fill-rule="evenodd" clip-rule="evenodd" d="M15.2535 6.58878L15.8309 7.00969L15.6103 7.69075L16.1877 7.26995L16.7652 7.69075L16.5446 7.00969L17.122 6.58878H16.4083L16.1877 5.90771L15.9672 6.58878H15.2535Z" fill="white"/>
<path fill-rule="evenodd" clip-rule="evenodd" d="M19.2721 6.58878L19.8495 7.00969L19.6289 7.69075L20.2063 7.26995L20.7838 7.69075L20.5632 7.00969L21.1406 6.58878H20.4269L20.2063 5.90771L19.9858 6.58878H19.2721Z" fill="white"/>
<path fill-rule="evenodd" clip-rule="evenodd" d="M1.19983 8.30216L1.77721 8.72307L1.55661 9.40413L2.1341 8.98323L2.71148 9.40413L2.49089 8.72307L3.06837 8.30216H2.35459L2.1341 7.62109L1.9135 8.30216H1.19983Z" fill="white"/>
<path fill-rule="evenodd" clip-rule="evenodd" d="M5.21835 8.30216L5.79584 8.72307L5.57524 9.40413L6.15263 8.98323L6.73011 9.40413L6.50952 8.72307L7.0869 8.30216H6.37312L6.15263 7.62109L5.93213 8.30216H5.21835Z" fill="white"/>
<path fill-rule="evenodd" clip-rule="evenodd" d="M9.23706 8.30216L9.81444 8.72307L9.59384 9.40413L10.1712 8.98323L10.7487 9.40413L10.5282 8.72307L11.1055 8.30216H10.3918L10.1712 7.62109L9.95073 8.30216H9.23706Z" fill="white"/>
<path fill-rule="evenodd" clip-rule="evenodd" d="M13.2556 8.30216L13.8331 8.72307L13.6124 9.40413L14.1899 8.98323L14.7673 9.40413L14.5468 8.72307L15.1241 8.30216H14.4104L14.1899 7.62109L13.9693 8.30216H13.2556Z" fill="white"/>
<path fill-rule="evenodd" clip-rule="evenodd" d="M17.2742 8.30216L17.8516 8.72307L17.631 9.40413L18.2085 8.98323L18.7859 9.40413L18.5654 8.72307L19.1427 8.30216H18.429L18.2085 7.62109L17.9879 8.30216H17.2742Z" fill="white"/>
<path fill-rule="evenodd" clip-rule="evenodd" d="M21.2928 8.30216L21.8702 8.72307L21.6496 9.40413L22.2271 8.98323L22.8044 9.40413L22.5839 8.72307L23.1612 8.30216H22.4475L22.2271 7.62109L22.0065 8.30216H21.2928Z" fill="white"/>
<path fill-rule="evenodd" clip-rule="evenodd" d="M1.23746 11.7035L1.81484 12.1244L1.59424 12.8055L2.17173 12.3846L2.74911 12.8055L2.52862 12.1244L3.1059 11.7035H2.39222L2.17173 11.0225L1.95113 11.7035H1.23746Z" fill="white"/>
<path fill-rule="evenodd" clip-rule="evenodd" d="M5.25604 11.7035L5.83353 12.1244L5.61283 12.8055L6.19031 12.3846L6.7677 12.8055L6.54721 12.1244L7.12448 11.7035H6.41081L6.19031 11.0225L5.96972 11.7035H5.25604Z" fill="white"/>
<path fill-rule="evenodd" clip-rule="evenodd" d="M9.27463 11.7035L9.85212 12.1244L9.63152 12.8055L10.2089 12.3846L10.7864 12.8055L10.5658 12.1244L11.1432 11.7035H10.4294L10.2089 11.0225L9.98841 11.7035H9.27463Z" fill="white"/>
<path fill-rule="evenodd" clip-rule="evenodd" d="M13.2933 11.7035L13.8707 12.1244L13.6501 12.8055L14.2275 12.3846L14.805 12.8055L14.5845 12.1244L15.1618 11.7035H14.4481L14.2275 11.0225L14.007 11.7035H13.2933Z" fill="white"/>
<path fill-rule="evenodd" clip-rule="evenodd" d="M17.3119 11.7035L17.8893 12.1244L17.6687 12.8055L18.2461 12.3846L18.8235 12.8055L18.6031 12.1244L19.1803 11.7035H18.4667L18.2461 11.0225L18.0256 11.7035H17.3119Z" fill="white"/>
<path fill-rule="evenodd" clip-rule="evenodd" d="M21.3305 11.7035L21.9079 12.1244L21.6873 12.8055L22.2646 12.3846L22.8421 12.8055L22.6216 12.1244L23.1989 11.7035H22.4852L22.2646 11.0225L22.0441 11.7035H21.3305Z" fill="white"/>
<path fill-rule="evenodd" clip-rule="evenodd" d="M1.18835 15.1444L1.76574 15.5654L1.54524 16.2464L2.12263 15.8255L2.70001 16.2464L2.47952 15.5654L3.0569 15.1444H2.34312L2.12263 14.4634L1.90214 15.1444H1.18835Z" fill="white"/>
<path fill-rule="evenodd" clip-rule="evenodd" d="M5.20694 15.1444L5.78443 15.5654L5.56372 16.2464L6.14121 15.8255L6.71859 16.2464L6.4981 15.5654L7.07548 15.1444H6.3617L6.14121 14.4634L5.92072 15.1444H5.20694Z" fill="white"/>
<path fill-rule="evenodd" clip-rule="evenodd" d="M9.22565 15.1444L9.80303 15.5654L9.58243 16.2464L10.1598 15.8255L10.7373 16.2464L10.5167 15.5654L11.0941 15.1444H10.3804L10.1598 14.4634L9.93932 15.1444H9.22565Z" fill="white"/>
<path fill-rule="evenodd" clip-rule="evenodd" d="M13.2442 15.1444L13.8216 15.5654L13.601 16.2464L14.1785 15.8255L14.7559 16.2464L14.5354 15.5654L15.1126 15.1444H14.399L14.1785 14.4634L13.9579 15.1444H13.2442Z" fill="white"/>
<path fill-rule="evenodd" clip-rule="evenodd" d="M17.2628 15.1444L17.8402 15.5654L17.6196 16.2464L18.1971 15.8255L18.7744 16.2464L18.5539 15.5654L19.1312 15.1444H18.4176L18.1971 14.4634L17.9765 15.1444H17.2628Z" fill="white"/>
<path fill-rule="evenodd" clip-rule="evenodd" d="M21.2814 15.1444L21.8588 15.5654L21.6382 16.2464L22.2156 15.8255L22.793 16.2464L22.5725 15.5654L23.1498 15.1444H22.4361L22.2156 14.4634L21.995 15.1444H21.2814Z" fill="white"/>
<path fill-rule="evenodd" clip-rule="evenodd" d="M3.20966 9.98575L3.78704 10.4066L3.56644 11.0876L4.14382 10.6668L4.72131 11.0876L4.50082 10.4066L5.07809 9.98575H4.36442L4.14382 9.30469L3.92333 9.98575H3.20966Z" fill="white"/>
<path fill-rule="evenodd" clip-rule="evenodd" d="M7.22821 9.98575L7.8057 10.4066L7.58499 11.0876L8.16248 10.6668L8.73986 11.0876L8.51937 10.4066L9.09665 9.98575H8.38297L8.16248 9.30469L7.94188 9.98575H7.22821Z" fill="white"/>
<path fill-rule="evenodd" clip-rule="evenodd" d="M11.2469 9.98575L11.8243 10.4066L11.6037 11.0876L12.1811 10.6668L12.7586 11.0876L12.538 10.4066L13.1154 9.98575H12.4017L12.1811 9.30469L11.9606 9.98575H11.2469Z" fill="white"/>
<path fill-rule="evenodd" clip-rule="evenodd" d="M15.2654 9.98575L15.8429 10.4066L15.6223 11.0876L16.1997 10.6668L16.7771 11.0876L16.5565 10.4066L17.1339 9.98575H16.4201L16.1997 9.30469L15.9792 9.98575H15.2654Z" fill="white"/>
<path fill-rule="evenodd" clip-rule="evenodd" d="M19.284 9.98575L19.8615 10.4066L19.6409 11.0876L20.2182 10.6668L20.7957 11.0876L20.5751 10.4066L21.1525 9.98575H20.4387L20.2182 9.30469L19.9977 9.98575H19.284Z" fill="white"/>
<path fill-rule="evenodd" clip-rule="evenodd" d="M3.19769 13.4218L3.77518 13.8426L3.55448 14.5238L4.13197 14.1029L4.70935 14.5238L4.48886 13.8426L5.06624 13.4218H4.35246L4.13197 12.7407L3.91147 13.4218H3.19769Z" fill="white"/>
<path fill-rule="evenodd" clip-rule="evenodd" d="M7.2164 13.4218L7.79378 13.8426L7.57318 14.5238L8.15057 14.1029L8.72805 14.5238L8.50746 13.8426L9.08484 13.4218H8.37116L8.15057 12.7407L7.93007 13.4218H7.2164Z" fill="white"/>
<path fill-rule="evenodd" clip-rule="evenodd" d="M11.235 13.4218L11.8124 13.8426L11.5918 14.5238L12.1693 14.1029L12.7466 14.5238L12.5261 13.8426L13.1034 13.4218H12.3897L12.1693 12.7407L11.9487 13.4218H11.235Z" fill="white"/>
<path fill-rule="evenodd" clip-rule="evenodd" d="M15.2535 13.4218L15.8309 13.8426L15.6103 14.5238L16.1877 14.1029L16.7652 14.5238L16.5447 13.8426L17.122 13.4218H16.4083L16.1877 12.7407L15.9672 13.4218H15.2535Z" fill="white"/>
<path fill-rule="evenodd" clip-rule="evenodd" d="M19.2721 13.4218L19.8495 13.8426L19.6289 14.5238L20.2064 14.1029L20.7838 14.5238L20.5633 13.8426L21.1406 13.4218H20.4269L20.2063 12.7407L19.9858 13.4218H19.2721Z" fill="white"/>
</g>
</svg>
