<svg width="20" height="25" viewBox="0 0 20 25" fill="none" xmlns="http://www.w3.org/2000/svg">
<path d="M11.4502 15.3338V13.6303C11.4502 12.9586 10.9037 12.4121 10.232 12.4121C9.56033 12.4121 9.01387 12.9586 9.01387 13.6303V15.1683C9.01387 17.0218 8.33104 18.8013 7.09107 20.179L5.38147 22.0786C5.23783 22.2382 5.25079 22.484 5.4104 22.6277C5.56995 22.7713 5.81575 22.7584 5.95944 22.5988L7.66904 20.6992C9.03766 19.1784 9.79141 17.2142 9.79141 15.1683V13.6303C9.79141 13.3873 9.98906 13.1896 10.232 13.1896C10.475 13.1896 10.6726 13.3873 10.6726 13.6303V15.3338C10.6726 17.6147 9.82764 19.8003 8.2933 21.4881L6.62683 23.3212C6.48241 23.48 6.49413 23.726 6.65301 23.8704C6.72749 23.9382 6.82106 23.9715 6.91436 23.9715C7.02011 23.9715 7.12544 23.9286 7.20216 23.8442L8.86858 22.0111C10.5333 20.1799 11.4502 17.8085 11.4502 15.3338Z" fill="#00A400"/>
<path d="M13.1089 13.6303C13.1089 12.044 11.8183 10.7534 10.232 10.7534C8.64568 10.7534 7.35513 12.044 7.35513 13.6303V15.1684C7.35513 16.6114 6.8235 17.9969 5.85816 19.0694L4.64276 20.4199C4.49913 20.5795 4.51209 20.8253 4.67169 20.969C4.83129 21.1127 5.07704 21.0996 5.22073 20.9401L6.43613 19.5896C7.53018 18.374 8.13272 16.8039 8.13272 15.1684V13.6303C8.13272 12.4727 9.07447 11.531 10.2321 11.531C11.3897 11.531 12.3314 12.4727 12.3314 13.6303V15.3338C12.3314 18.0282 11.3333 20.6102 9.52072 22.6039L8.11468 24.1507C7.97021 24.3095 7.98193 24.5554 8.1408 24.6999C8.21529 24.7676 8.30885 24.8009 8.40216 24.8009C8.5079 24.8009 8.61323 24.7581 8.68995 24.6737L10.0961 23.1269C12.0389 20.9898 13.1089 18.2221 13.1089 15.3338V13.6303Z" fill="#00A400"/>
<path d="M14.7677 13.6304C14.7677 11.1294 12.733 9.09473 10.232 9.09473C7.73104 9.09473 5.69637 11.1294 5.69637 13.6304V15.1684C5.69637 16.201 5.31595 17.1924 4.62518 17.9599L3.53082 19.1758C3.38719 19.3354 3.40015 19.5812 3.55975 19.7249C3.7193 19.8686 3.96516 19.8555 4.1088 19.696L5.20315 18.48C6.02263 17.5695 6.47391 16.3934 6.47391 15.1684V13.6304C6.47391 11.5581 8.15977 9.87226 10.232 9.87226C12.3043 9.87226 13.9901 11.5581 13.9901 13.6304V15.3339C13.9901 18.4419 12.8387 21.42 10.748 23.7197L10.3589 24.1478C10.2145 24.3067 10.2262 24.5526 10.3851 24.697C10.4596 24.7647 10.5532 24.7981 10.6464 24.7981C10.7522 24.7981 10.8575 24.7552 10.9342 24.6708L11.3233 24.2428C13.5444 21.7996 14.7676 18.6357 14.7676 15.3339V13.6304H14.7677Z" fill="#00A400"/>
<path d="M4.03766 13.6304C4.03766 13.8451 4.21172 14.0191 4.42643 14.0191C4.64113 14.0191 4.8152 13.8451 4.8152 13.6304C4.8152 12.3213 5.29048 11.0567 6.15354 10.0695C7.00858 9.09152 8.18209 8.45197 9.45787 8.26868C9.6704 8.23815 9.81792 8.04107 9.78739 7.82859C9.75686 7.61607 9.55962 7.46875 9.3473 7.49907C7.88761 7.7088 6.54548 8.43989 5.56816 9.55778C4.58121 10.6866 4.03766 12.133 4.03766 13.6304Z" fill="#00A400"/>
<path d="M4.81519 15.1686C4.81519 14.9538 4.64112 14.7798 4.42642 14.7798C4.21171 14.7798 4.03765 14.9538 4.03765 15.1686C4.03765 15.7907 3.80848 16.3879 3.39234 16.8503L2.41892 17.9319C2.27528 18.0915 2.28824 18.3373 2.44784 18.481C2.52217 18.5478 2.61512 18.5808 2.7078 18.5808C2.81417 18.5808 2.92017 18.5373 2.99689 18.452L3.97031 17.3704C4.51511 16.765 4.81519 15.9831 4.81519 15.1686Z" fill="#00A400"/>
<path d="M15.6633 18.6387C15.4555 18.5845 15.2432 18.7087 15.1888 18.9163C15.0452 19.4647 14.8667 20.0099 14.658 20.5366C14.5789 20.7362 14.6766 20.9622 14.8762 21.0412C14.9232 21.0599 14.9716 21.0687 15.0193 21.0687C15.174 21.0687 15.3204 20.9756 15.3809 20.823C15.6011 20.2671 15.7895 19.6919 15.941 19.1132C15.9953 18.9055 15.871 18.693 15.6633 18.6387Z" fill="#00A400"/>
<path d="M14.3693 9.02352C14.2096 8.87989 13.9638 8.89305 13.8203 9.05271C13.6767 9.21236 13.6898 9.45817 13.8494 9.6017C14.993 10.6297 15.6488 12.098 15.6488 13.6301V15.3336C15.6488 15.9801 15.6042 16.6317 15.5163 17.2701C15.487 17.4829 15.6357 17.679 15.8483 17.7083C15.8663 17.7108 15.8842 17.712 15.9019 17.712C16.093 17.712 16.2597 17.5709 16.2865 17.3762C16.3793 16.7027 16.4263 16.0154 16.4263 15.3335V13.6301C16.4264 11.8778 15.6766 10.1987 14.3693 9.02352Z" fill="#00A400"/>
<path d="M12.5518 8.73588C12.6058 8.76159 12.6627 8.77372 12.7187 8.77372C12.864 8.77372 13.0034 8.69187 13.07 8.55196C13.1623 8.35815 13.08 8.12613 12.8861 8.03386C12.326 7.76717 11.7307 7.58724 11.1167 7.49907C10.9038 7.46875 10.7071 7.61612 10.6766 7.82859C10.646 8.04107 10.7936 8.23815 11.0061 8.26868C11.5425 8.34576 12.0625 8.50292 12.5518 8.73588Z" fill="#00A400"/>
<path d="M10.232 5.77686C10.0866 5.77686 9.93948 5.7809 9.7947 5.78888C9.5803 5.8007 9.41609 5.9841 9.42791 6.19844C9.43978 6.41283 9.62297 6.57793 9.83751 6.56518C9.96809 6.55797 10.1008 6.55434 10.232 6.55434C14.1335 6.55434 17.3076 9.72841 17.3076 13.6299V15.3335C17.3076 15.5482 17.4816 15.7222 17.6963 15.7222C17.9111 15.7222 18.0851 15.5482 18.0851 15.3335V13.63C18.0852 9.29978 14.5622 5.77686 10.232 5.77686Z" fill="#00A400"/>
<path d="M5.98127 7.88655C6.05783 7.88655 6.13523 7.86395 6.20287 7.81693C6.84968 7.36715 7.56004 7.03136 8.3143 6.81868C8.52097 6.76042 8.64129 6.54561 8.58302 6.33899C8.52476 6.13237 8.3099 6.01222 8.10333 6.07027C7.26566 6.30644 6.47693 6.67929 5.759 7.17847C5.58271 7.30106 5.53916 7.54334 5.66176 7.71959C5.73728 7.82834 5.85827 7.88655 5.98127 7.88655Z" fill="#00A400"/>
<path d="M3.15645 15.1681V13.63C3.15645 11.8214 3.84136 10.099 5.085 8.77997C5.23227 8.62374 5.22506 8.37773 5.06883 8.23041C4.9126 8.08309 4.66653 8.0904 4.51927 8.24658C3.13903 9.71048 2.37891 11.6224 2.37891 13.63V15.1681C2.37891 15.3797 2.30095 15.5829 2.15943 15.7401L1.68006 16.2727C1.53642 16.4323 1.54938 16.6781 1.70898 16.8217C1.78326 16.8887 1.87625 16.9216 1.96894 16.9216C2.0753 16.9216 2.18126 16.8782 2.25803 16.7929L2.73741 16.2603C3.00763 15.96 3.15645 15.5721 3.15645 15.1681Z" fill="#00A400"/>
<path d="M19.2501 10.6031C18.8237 9.3359 18.1461 8.1911 17.236 7.20047C17.0907 7.04237 16.8448 7.0319 16.6867 7.17719C16.5286 7.32249 16.5182 7.5684 16.6634 7.72655C17.4994 8.63648 18.1218 9.68771 18.5133 10.851C18.5679 11.0134 18.7194 11.1159 18.8816 11.1159C18.9228 11.1159 18.9646 11.1093 19.0057 11.0955C19.2091 11.027 19.3186 10.8065 19.2501 10.6031Z" fill="#00A400"/>
<path d="M13.3044 4.62749C13.1013 4.55798 12.8802 4.66627 12.8107 4.86946C12.7412 5.07261 12.8495 5.29364 13.0527 5.3631C13.9099 5.65643 14.7148 6.08138 15.4449 6.62628C15.5147 6.67838 15.5962 6.70347 15.6771 6.70347C15.7956 6.70347 15.9126 6.6495 15.989 6.54718C16.1174 6.37514 16.082 6.13151 15.9099 6.00311C15.1149 5.4099 14.2383 4.94701 13.3044 4.62749Z" fill="#00A400"/>
<path d="M4.19139 7.32721C5.82676 5.75923 7.97203 4.8957 10.232 4.8957C10.6517 4.8957 11.0737 4.92592 11.4862 4.98543C11.6989 5.01643 11.8959 4.86869 11.9266 4.65617C11.9573 4.44364 11.8099 4.24656 11.5974 4.21587C11.1481 4.15108 10.6887 4.11816 10.232 4.11816C7.7705 4.11816 5.4341 5.05852 3.65328 6.76599C1.878 8.46817 0.839784 10.7524 0.729892 13.198C0.72025 13.4125 0.886332 13.5942 1.10078 13.6038C1.10674 13.6041 1.11265 13.6042 1.11856 13.6042C1.32523 13.6042 1.49727 13.4415 1.50665 13.2329C1.60747 10.9878 2.56094 8.89048 4.19139 7.32721Z" fill="#00A400"/>
<path d="M10.232 2.45947C9.36262 2.45947 8.49629 2.56024 7.65712 2.75898C7.44817 2.80843 7.31894 3.01795 7.36839 3.22685C7.4179 3.43575 7.62742 3.56503 7.83632 3.51552C8.61686 3.33078 9.42286 3.23701 10.232 3.23701C13.0828 3.23701 15.7438 4.37279 17.7249 6.43502C17.8012 6.51449 17.9032 6.5545 18.0053 6.5545C18.1022 6.5545 18.1992 6.51853 18.2746 6.44612C18.4294 6.29735 18.4344 6.05123 18.2857 5.89645C17.2534 4.82194 16.041 3.97666 14.6819 3.38422C13.2743 2.77059 11.7771 2.45947 10.232 2.45947Z" fill="#00A400"/>
<path d="M1.49929 7.30111C1.57041 7.35678 1.65485 7.38379 1.73872 7.38379C1.85416 7.38379 1.9684 7.33262 2.04507 7.23471C3.15306 5.81948 4.61172 4.70942 6.26331 4.02441C6.46163 3.94215 6.55577 3.71469 6.4735 3.51637C6.39124 3.31804 6.16368 3.2238 5.96546 3.30617C4.19055 4.04229 2.62319 5.23498 1.43289 6.75528C1.3005 6.92442 1.33025 7.16877 1.49929 7.30111Z" fill="#00A400"/>
<path d="M4.84145 2.80812C4.89816 2.80812 4.95575 2.79568 5.01018 2.76935C6.64705 1.97901 8.40392 1.57832 10.232 1.57832C11.1846 1.57832 12.1335 1.69039 13.0519 1.91142C13.2606 1.96149 13.4706 1.83314 13.5208 1.6244C13.5711 1.41566 13.4426 1.20567 13.2338 1.15544C12.2558 0.920107 11.2459 0.800781 10.232 0.800781C8.28589 0.800781 6.41529 1.22749 4.67215 2.06915C4.47881 2.16251 4.39774 2.39494 4.49109 2.58829C4.55812 2.72716 4.69693 2.80812 4.84145 2.80812Z" fill="#00A400"/>
<path d="M14.6768 2.42777C15.0776 2.58737 15.4743 2.77087 15.8559 2.97308C15.9139 3.00387 15.9762 3.01844 16.0376 3.01844C16.1769 3.01844 16.3116 2.94333 16.3814 2.81161C16.4819 2.62189 16.4097 2.38661 16.2199 2.28605C15.8137 2.07077 15.3913 1.8754 14.9645 1.70543C14.765 1.62597 14.5389 1.72332 14.4594 1.92273C14.38 2.12219 14.4774 2.34835 14.6768 2.42777Z" fill="#00A400"/>
</svg>
