<svg width="16" height="17" viewBox="0 0 16 17" fill="none" xmlns="http://www.w3.org/2000/svg">
<path d="M3 3.00006L13 14.0001" stroke="black" stroke-linecap="round" stroke-linejoin="round"/>
<path d="M9.68169 10.3499C9.19107 10.7959 8.54339 11.0287 7.88114 10.9971C7.21888 10.9655 6.59629 10.6722 6.1503 10.1816C5.70432 9.69103 5.47147 9.04338 5.50297 8.38112C5.53448 7.71886 5.82776 7.09624 6.31831 6.65021" stroke="black" stroke-linecap="round" stroke-linejoin="round"/>
<path d="M4.62465 4.78717C2.07657 6.07752 1 8.50007 1 8.50007C1 8.50007 3 12.9996 8 12.9996C9.1715 13.0089 10.3284 12.7391 11.3748 12.2124" stroke="black" stroke-linecap="round" stroke-linejoin="round"/>
<path d="M13.0381 11.0688C14.4007 9.84833 15 8.50007 15 8.50007C15 8.50007 13 3.99958 8 3.99958C7.56695 3.99887 7.13459 4.03408 6.70736 4.10484" stroke="black" stroke-linecap="round" stroke-linejoin="round"/>
<path d="M8.47046 6.04431C9.00182 6.14634 9.48577 6.41791 9.84973 6.81827C10.2137 7.21863 10.438 7.72621 10.4891 8.26486" stroke="black" stroke-linecap="round" stroke-linejoin="round"/>
</svg>
