<svg width="20" height="20" viewBox="0 0 20 20" fill="none" xmlns="http://www.w3.org/2000/svg">
<mask id="path-1-outside-1_234_6943" maskUnits="userSpaceOnUse" x="2" y="1" width="16" height="18" fill="black">
<rect fill="white" x="2" y="1" width="16" height="18"/>
<path d="M4.5 2C4.10218 2 3.72064 2.15804 3.43934 2.43934C3.15804 2.72064 3 3.10218 3 3.5V16.5C3 16.8978 3.15804 17.2794 3.43934 17.5607C3.72064 17.842 4.10218 18 4.5 18H11.5C11.8978 18 12.2794 17.842 12.5607 17.5607C12.842 17.2794 13 16.8978 13 16.5V15C13 14.8674 12.9473 14.7402 12.8536 14.6464C12.7598 14.5527 12.6326 14.5 12.5 14.5C12.087 14.5 11.823 14.398 11.644 14.264C11.461 14.127 11.322 13.922 11.22 13.641C11.006 13.053 11 12.274 11 11.5C11 11.4342 10.987 11.3691 10.9618 11.3084C10.9365 11.2476 10.8996 11.1924 10.853 11.146L10.567 10.859L9.354 9.646C8.887 9.179 8.75 8.866 8.724 8.691C8.704 8.551 8.746 8.457 8.846 8.361C9.06 8.156 9.213 8.017 9.386 7.975C9.489 7.949 9.724 7.931 10.146 8.353L13.146 11.353C13.2398 11.4469 13.367 11.4997 13.4996 11.4998C13.5653 11.4998 13.6304 11.4869 13.6911 11.4618C13.7518 11.4367 13.807 11.3999 13.8535 11.3535C13.9 11.3071 13.9369 11.252 13.9621 11.1913C13.9872 11.1306 14.0002 11.0656 14.0003 10.9999C14.0003 10.9342 13.9874 10.8691 13.9623 10.8084C13.9372 10.7477 13.9004 10.6925 13.854 10.646L13 9.793V6.707L15.56 9.267C15.6994 9.40627 15.8101 9.57166 15.8856 9.75372C15.9611 9.93577 16 10.1309 16 10.328V17.5C16 17.6326 16.0527 17.7598 16.1464 17.8536C16.2402 17.9473 16.3674 18 16.5 18C16.6326 18 16.7598 17.9473 16.8536 17.8536C16.9473 17.7598 17 17.6326 17 17.5V10.328C16.9999 9.66526 16.7366 9.02969 16.268 8.561L13 5.293V3.5C13 3.10218 12.842 2.72064 12.5607 2.43934C12.2794 2.15804 11.8978 2 11.5 2H4.5ZM12 5.5V8.793L10.854 7.646C10.275 7.068 9.7 6.869 9.149 7.003C9.04076 7.02972 8.93579 7.06828 8.836 7.118C8.38899 6.98851 7.918 6.96476 7.46023 7.04862C7.00246 7.13248 6.57047 7.32166 6.1984 7.6012C5.82632 7.88074 5.52436 8.24298 5.31638 8.6593C5.10839 9.07563 5.00008 9.53462 5 10C4.99996 10.5799 5.16802 11.1475 5.48383 11.6339C5.79964 12.1203 6.24967 12.5047 6.77945 12.7407C7.30923 12.9766 7.89604 13.054 8.46886 12.9633C9.04168 12.8727 9.57595 12.618 10.007 12.23C10.024 12.808 10.082 13.44 10.28 13.983C10.428 14.39 10.664 14.779 11.044 15.063L11.05 15.069C10.7455 15.1648 10.4795 15.3552 10.2906 15.6125C10.1018 15.8699 9.99998 16.1808 10 16.5V17H6V16.5C6 16.1022 5.84196 15.7206 5.56066 15.4393C5.27936 15.158 4.89782 15 4.5 15H4V5H4.5C4.89782 5 5.27936 4.84196 5.56066 4.56066C5.84196 4.27936 6 3.89782 6 3.5V3H10V3.5C10 3.89782 10.158 4.27936 10.4393 4.56066C10.7206 4.84196 11.1022 5 11.5 5H12V5.5ZM12 16.5V16.509C11.9976 16.64 11.9439 16.7649 11.8504 16.8568C11.7569 16.9486 11.6311 17 11.5 17H11V16.5C11 16.3674 11.0527 16.2402 11.1464 16.1464C11.2402 16.0527 11.3674 16 11.5 16H12V16.5ZM6 10C6.00001 9.49138 6.19379 9.00188 6.54193 8.63108C6.89006 8.26028 7.36639 8.03604 7.874 8.004C7.75 8.234 7.687 8.514 7.735 8.837C7.806 9.319 8.113 9.82 8.646 10.353L9.553 11.26C9.29262 11.5809 8.93925 11.8132 8.54146 11.9251C8.14367 12.0369 7.72099 12.0229 7.33153 11.8847C6.94207 11.7466 6.60495 11.4913 6.36652 11.1538C6.12809 10.8163 6.00005 10.4132 6 10ZM5 3V3.5C5 3.63261 4.94732 3.75979 4.85355 3.85355C4.75979 3.94732 4.63261 4 4.5 4H4V3.5C4 3.36739 4.05268 3.24021 4.14645 3.14645C4.24021 3.05268 4.36739 3 4.5 3H5ZM4 16H4.5C4.63261 16 4.75979 16.0527 4.85355 16.1464C4.94732 16.2402 5 16.3674 5 16.5V17H4.5C4.36739 17 4.24021 16.9473 4.14645 16.8536C4.05268 16.7598 4 16.6326 4 16.5V16ZM12 4H11.5C11.3674 4 11.2402 3.94732 11.1464 3.85355C11.0527 3.75979 11 3.63261 11 3.5V3H11.5C11.6326 3 11.7598 3.05268 11.8536 3.14645C11.9473 3.24021 12 3.36739 12 3.5V4Z"/>
</mask>
<path d="M4.5 2C4.10218 2 3.72064 2.15804 3.43934 2.43934C3.15804 2.72064 3 3.10218 3 3.5V16.5C3 16.8978 3.15804 17.2794 3.43934 17.5607C3.72064 17.842 4.10218 18 4.5 18H11.5C11.8978 18 12.2794 17.842 12.5607 17.5607C12.842 17.2794 13 16.8978 13 16.5V15C13 14.8674 12.9473 14.7402 12.8536 14.6464C12.7598 14.5527 12.6326 14.5 12.5 14.5C12.087 14.5 11.823 14.398 11.644 14.264C11.461 14.127 11.322 13.922 11.22 13.641C11.006 13.053 11 12.274 11 11.5C11 11.4342 10.987 11.3691 10.9618 11.3084C10.9365 11.2476 10.8996 11.1924 10.853 11.146L10.567 10.859L9.354 9.646C8.887 9.179 8.75 8.866 8.724 8.691C8.704 8.551 8.746 8.457 8.846 8.361C9.06 8.156 9.213 8.017 9.386 7.975C9.489 7.949 9.724 7.931 10.146 8.353L13.146 11.353C13.2398 11.4469 13.367 11.4997 13.4996 11.4998C13.5653 11.4998 13.6304 11.4869 13.6911 11.4618C13.7518 11.4367 13.807 11.3999 13.8535 11.3535C13.9 11.3071 13.9369 11.252 13.9621 11.1913C13.9872 11.1306 14.0002 11.0656 14.0003 10.9999C14.0003 10.9342 13.9874 10.8691 13.9623 10.8084C13.9372 10.7477 13.9004 10.6925 13.854 10.646L13 9.793V6.707L15.56 9.267C15.6994 9.40627 15.8101 9.57166 15.8856 9.75372C15.9611 9.93577 16 10.1309 16 10.328V17.5C16 17.6326 16.0527 17.7598 16.1464 17.8536C16.2402 17.9473 16.3674 18 16.5 18C16.6326 18 16.7598 17.9473 16.8536 17.8536C16.9473 17.7598 17 17.6326 17 17.5V10.328C16.9999 9.66526 16.7366 9.02969 16.268 8.561L13 5.293V3.5C13 3.10218 12.842 2.72064 12.5607 2.43934C12.2794 2.15804 11.8978 2 11.5 2H4.5ZM12 5.5V8.793L10.854 7.646C10.275 7.068 9.7 6.869 9.149 7.003C9.04076 7.02972 8.93579 7.06828 8.836 7.118C8.38899 6.98851 7.918 6.96476 7.46023 7.04862C7.00246 7.13248 6.57047 7.32166 6.1984 7.6012C5.82632 7.88074 5.52436 8.24298 5.31638 8.6593C5.10839 9.07563 5.00008 9.53462 5 10C4.99996 10.5799 5.16802 11.1475 5.48383 11.6339C5.79964 12.1203 6.24967 12.5047 6.77945 12.7407C7.30923 12.9766 7.89604 13.054 8.46886 12.9633C9.04168 12.8727 9.57595 12.618 10.007 12.23C10.024 12.808 10.082 13.44 10.28 13.983C10.428 14.39 10.664 14.779 11.044 15.063L11.05 15.069C10.7455 15.1648 10.4795 15.3552 10.2906 15.6125C10.1018 15.8699 9.99998 16.1808 10 16.5V17H6V16.5C6 16.1022 5.84196 15.7206 5.56066 15.4393C5.27936 15.158 4.89782 15 4.5 15H4V5H4.5C4.89782 5 5.27936 4.84196 5.56066 4.56066C5.84196 4.27936 6 3.89782 6 3.5V3H10V3.5C10 3.89782 10.158 4.27936 10.4393 4.56066C10.7206 4.84196 11.1022 5 11.5 5H12V5.5ZM12 16.5V16.509C11.9976 16.64 11.9439 16.7649 11.8504 16.8568C11.7569 16.9486 11.6311 17 11.5 17H11V16.5C11 16.3674 11.0527 16.2402 11.1464 16.1464C11.2402 16.0527 11.3674 16 11.5 16H12V16.5ZM6 10C6.00001 9.49138 6.19379 9.00188 6.54193 8.63108C6.89006 8.26028 7.36639 8.03604 7.874 8.004C7.75 8.234 7.687 8.514 7.735 8.837C7.806 9.319 8.113 9.82 8.646 10.353L9.553 11.26C9.29262 11.5809 8.93925 11.8132 8.54146 11.9251C8.14367 12.0369 7.72099 12.0229 7.33153 11.8847C6.94207 11.7466 6.60495 11.4913 6.36652 11.1538C6.12809 10.8163 6.00005 10.4132 6 10ZM5 3V3.5C5 3.63261 4.94732 3.75979 4.85355 3.85355C4.75979 3.94732 4.63261 4 4.5 4H4V3.5C4 3.36739 4.05268 3.24021 4.14645 3.14645C4.24021 3.05268 4.36739 3 4.5 3H5ZM4 16H4.5C4.63261 16 4.75979 16.0527 4.85355 16.1464C4.94732 16.2402 5 16.3674 5 16.5V17H4.5C4.36739 17 4.24021 16.9473 4.14645 16.8536C4.05268 16.7598 4 16.6326 4 16.5V16ZM12 4H11.5C11.3674 4 11.2402 3.94732 11.1464 3.85355C11.0527 3.75979 11 3.63261 11 3.5V3H11.5C11.6326 3 11.7598 3.05268 11.8536 3.14645C11.9473 3.24021 12 3.36739 12 3.5V4Z" fill="#F4AD22"/>
<path d="M4.5 2C4.10218 2 3.72064 2.15804 3.43934 2.43934C3.15804 2.72064 3 3.10218 3 3.5V16.5C3 16.8978 3.15804 17.2794 3.43934 17.5607C3.72064 17.842 4.10218 18 4.5 18H11.5C11.8978 18 12.2794 17.842 12.5607 17.5607C12.842 17.2794 13 16.8978 13 16.5V15C13 14.8674 12.9473 14.7402 12.8536 14.6464C12.7598 14.5527 12.6326 14.5 12.5 14.5C12.087 14.5 11.823 14.398 11.644 14.264C11.461 14.127 11.322 13.922 11.22 13.641C11.006 13.053 11 12.274 11 11.5C11 11.4342 10.987 11.3691 10.9618 11.3084C10.9365 11.2476 10.8996 11.1924 10.853 11.146L10.567 10.859L9.354 9.646C8.887 9.179 8.75 8.866 8.724 8.691C8.704 8.551 8.746 8.457 8.846 8.361C9.06 8.156 9.213 8.017 9.386 7.975C9.489 7.949 9.724 7.931 10.146 8.353L13.146 11.353C13.2398 11.4469 13.367 11.4997 13.4996 11.4998C13.5653 11.4998 13.6304 11.4869 13.6911 11.4618C13.7518 11.4367 13.807 11.3999 13.8535 11.3535C13.9 11.3071 13.9369 11.252 13.9621 11.1913C13.9872 11.1306 14.0002 11.0656 14.0003 10.9999C14.0003 10.9342 13.9874 10.8691 13.9623 10.8084C13.9372 10.7477 13.9004 10.6925 13.854 10.646L13 9.793V6.707L15.56 9.267C15.6994 9.40627 15.8101 9.57166 15.8856 9.75372C15.9611 9.93577 16 10.1309 16 10.328V17.5C16 17.6326 16.0527 17.7598 16.1464 17.8536C16.2402 17.9473 16.3674 18 16.5 18C16.6326 18 16.7598 17.9473 16.8536 17.8536C16.9473 17.7598 17 17.6326 17 17.5V10.328C16.9999 9.66526 16.7366 9.02969 16.268 8.561L13 5.293V3.5C13 3.10218 12.842 2.72064 12.5607 2.43934C12.2794 2.15804 11.8978 2 11.5 2H4.5ZM12 5.5V8.793L10.854 7.646C10.275 7.068 9.7 6.869 9.149 7.003C9.04076 7.02972 8.93579 7.06828 8.836 7.118C8.38899 6.98851 7.918 6.96476 7.46023 7.04862C7.00246 7.13248 6.57047 7.32166 6.1984 7.6012C5.82632 7.88074 5.52436 8.24298 5.31638 8.6593C5.10839 9.07563 5.00008 9.53462 5 10C4.99996 10.5799 5.16802 11.1475 5.48383 11.6339C5.79964 12.1203 6.24967 12.5047 6.77945 12.7407C7.30923 12.9766 7.89604 13.054 8.46886 12.9633C9.04168 12.8727 9.57595 12.618 10.007 12.23C10.024 12.808 10.082 13.44 10.28 13.983C10.428 14.39 10.664 14.779 11.044 15.063L11.05 15.069C10.7455 15.1648 10.4795 15.3552 10.2906 15.6125C10.1018 15.8699 9.99998 16.1808 10 16.5V17H6V16.5C6 16.1022 5.84196 15.7206 5.56066 15.4393C5.27936 15.158 4.89782 15 4.5 15H4V5H4.5C4.89782 5 5.27936 4.84196 5.56066 4.56066C5.84196 4.27936 6 3.89782 6 3.5V3H10V3.5C10 3.89782 10.158 4.27936 10.4393 4.56066C10.7206 4.84196 11.1022 5 11.5 5H12V5.5ZM12 16.5V16.509C11.9976 16.64 11.9439 16.7649 11.8504 16.8568C11.7569 16.9486 11.6311 17 11.5 17H11V16.5C11 16.3674 11.0527 16.2402 11.1464 16.1464C11.2402 16.0527 11.3674 16 11.5 16H12V16.5ZM6 10C6.00001 9.49138 6.19379 9.00188 6.54193 8.63108C6.89006 8.26028 7.36639 8.03604 7.874 8.004C7.75 8.234 7.687 8.514 7.735 8.837C7.806 9.319 8.113 9.82 8.646 10.353L9.553 11.26C9.29262 11.5809 8.93925 11.8132 8.54146 11.9251C8.14367 12.0369 7.72099 12.0229 7.33153 11.8847C6.94207 11.7466 6.60495 11.4913 6.36652 11.1538C6.12809 10.8163 6.00005 10.4132 6 10ZM5 3V3.5C5 3.63261 4.94732 3.75979 4.85355 3.85355C4.75979 3.94732 4.63261 4 4.5 4H4V3.5C4 3.36739 4.05268 3.24021 4.14645 3.14645C4.24021 3.05268 4.36739 3 4.5 3H5ZM4 16H4.5C4.63261 16 4.75979 16.0527 4.85355 16.1464C4.94732 16.2402 5 16.3674 5 16.5V17H4.5C4.36739 17 4.24021 16.9473 4.14645 16.8536C4.05268 16.7598 4 16.6326 4 16.5V16ZM12 4H11.5C11.3674 4 11.2402 3.94732 11.1464 3.85355C11.0527 3.75979 11 3.63261 11 3.5V3H11.5C11.6326 3 11.7598 3.05268 11.8536 3.14645C11.9473 3.24021 12 3.36739 12 3.5V4Z" stroke="#F4AD22" stroke-width="0.4" mask="url(#path-1-outside-1_234_6943)"/>
</svg>
