<svg width="22" height="22" viewBox="0 0 22 22" fill="none" xmlns="http://www.w3.org/2000/svg">
<path d="M4.82993 8.93745C4.8288 8.12208 4.98905 7.31455 5.30146 6.56141C5.61387 5.80826 6.07225 5.1244 6.65019 4.54923C7.22813 3.97407 7.91419 3.51898 8.66883 3.2102C9.42347 2.90142 10.2318 2.74506 11.0471 2.75012C14.4493 2.77541 17.1707 5.60336 17.1707 9.01512V9.62495C17.1707 12.7029 17.8147 14.4889 18.3818 15.4651C18.4429 15.5694 18.4754 15.688 18.4761 15.8089C18.4767 15.9297 18.4455 16.0487 18.3855 16.1536C18.3255 16.2586 18.2389 16.3458 18.1345 16.4067C18.03 16.4675 17.9113 16.4996 17.7904 16.4999H4.20952C4.08862 16.4996 3.96994 16.4674 3.86546 16.4066C3.76098 16.3458 3.67438 16.2585 3.61441 16.1535C3.55443 16.0486 3.52321 15.9296 3.52388 15.8087C3.52454 15.6878 3.55708 15.5693 3.61821 15.465C4.18568 14.4887 4.82993 12.7027 4.82993 9.62495L4.82993 8.93745Z" stroke="#F89E19" stroke-width="1.2" stroke-linecap="round" stroke-linejoin="round"/>
<path d="M8.25 16.5V17.1875C8.25 17.9168 8.53973 18.6163 9.05546 19.132C9.57118 19.6478 10.2707 19.9375 11 19.9375C11.7293 19.9375 12.4288 19.6478 12.9445 19.132C13.4603 18.6163 13.75 17.9168 13.75 17.1875V16.5" stroke="#F89E19" stroke-width="1.2" stroke-linecap="round" stroke-linejoin="round"/>
</svg>
