<svg id="Group_1" data-name="Group 1" xmlns="http://www.w3.org/2000/svg" width="23" height="18" viewBox="0 0 23 18">
  <path id="Path_1" data-name="Path 1" d="M3.666,13.483l.168.163.078.073,2.276,2.237c.1.1.2.2.351.343.078.079.165.163.3.286l.042.043c.054.057.068.071.093.094a4.235,4.235,0,0,0,1.061.754,4.424,4.424,0,0,0,1.26.408,8.155,8.155,0,0,0,1.216.106l.2.005c.121,0,.223,0,.322,0h6.594c.15,0,.269,0,.528-.01a8.114,8.114,0,0,0,1.207-.106,4.394,4.394,0,0,0,1.258-.408,4.226,4.226,0,0,0,1.077-.769,4.3,4.3,0,0,0,.78-1.053,4.4,4.4,0,0,0,.416-1.239,7.931,7.931,0,0,0,.107-1.2c.005-.18.008-.349.008-.512V5.294l0-.133c0-.193,0-.279-.007-.391a7.851,7.851,0,0,0-.105-1.18,4.392,4.392,0,0,0-.413-1.237A4.223,4.223,0,0,0,20.611.523,4.39,4.39,0,0,0,19.355.116,7.6,7.6,0,0,0,18.132.009C17.888,0,17.769,0,17.619,0h-6.6c-.1,0-.2,0-.322,0l-.207.005A7.518,7.518,0,0,0,9.285.116,4.412,4.412,0,0,0,8.03.523a4.276,4.276,0,0,0-1.076.769c-.011.01-.03.029-.119.123-.113.1-.213.2-.311.3-.15.144-.243.234-.346.338L3.84,4.347l-.094.09-.086.084c-.092.088-.151.145-.216.212L1.357,6.784l-.023.022-.029.028-.053.053-.095.094c-.086.084-.13.128-.179.182a5.906,5.906,0,0,0-.489.531,1.809,1.809,0,0,0-.35.523L.115,8.28a2.309,2.309,0,0,0,0,1.44l.026.067a1.9,1.9,0,0,0,.349.523,7.355,7.355,0,0,0,.5.543l.076.076.088.088.1.1.105.1,2.1,2.066Zm13.35,3.825V18l0-.692v-.692H11.025c-.087,0-.179,0-.289,0l-.2-.005a6.762,6.762,0,0,1-1.013-.088,2.994,2.994,0,0,1-.853-.276,2.863,2.863,0,0,1-.719-.514l-.05-.051c-.069-.072-.075-.078-.1-.1-.107-.1-.185-.176-.261-.253-.153-.147-.249-.241-.344-.337l-2.33-2.29a.784.784,0,0,0-.07-.064L4.653,12.5l-.2-.2L2.354,10.237l-.1-.1-.105-.1-.078-.078-.04-.04-.042-.042c-.154-.151-.295-.3-.461-.5a.522.522,0,0,1-.086-.119.946.946,0,0,1,0-.518.427.427,0,0,1,.076-.1l.051-.057a5.031,5.031,0,0,1,.44-.476c.034-.037.064-.068.14-.142l.1-.1L2.3,7.812l.023-.023.021-.02L4.452,5.7c.062-.063.11-.11.229-.225l.055-.054a.876.876,0,0,1,.071-.062L7.181,3.023c.1-.1.185-.183.338-.331.095-.1.182-.179.284-.273.026-.024.056-.055.13-.134a2.907,2.907,0,0,1,.735-.529,2.992,2.992,0,0,1,.852-.275,6.165,6.165,0,0,1,1-.087h.026l.19,0c.111,0,.2,0,.289,0h6.6c.133,0,.243,0,.489.009a6.243,6.243,0,0,1,1.011.087,2.975,2.975,0,0,1,.853.276,2.827,2.827,0,0,1,1.245,1.222,3,3,0,0,1,.28.841,6.531,6.531,0,0,1,.086.98c0,.113,0,.193.007.378l0,.126v7.4c0,.148,0,.3-.008.483a6.6,6.6,0,0,1-.088,1,3.009,3.009,0,0,1-.282.84,2.9,2.9,0,0,1-.523.7,2.814,2.814,0,0,1-.718.512,2.972,2.972,0,0,1-.85.276,6.749,6.749,0,0,1-1,.087c-.257.007-.367.009-.5.009h-.6Z" fill="#3f91ff" fill-rule="evenodd"/>
  <path id="Path_2" data-name="Path 2" d="M17.912,5.088a.583.583,0,0,1,0,.825l-7,7a.583.583,0,0,1-.825-.825l7-7A.583.583,0,0,1,17.912,5.088Z" fill="#3f91ff" fill-rule="evenodd"/>
  <path id="Path_3" data-name="Path 3" d="M10.087,5.088a.583.583,0,0,1,.825,0l7,7a.583.583,0,0,1-.825.825l-7-7A.583.583,0,0,1,10.087,5.088Z" fill="#3f91ff" fill-rule="evenodd"/>
</svg>
