<svg width="16" height="16" viewBox="0 0 16 16" fill="none" xmlns="http://www.w3.org/2000/svg">
<path d="M6 14H10" stroke="#A1A2A3" stroke-linecap="round" stroke-linejoin="round"/>
<path d="M3.5127 6.49996C3.51188 5.90697 3.62842 5.31967 3.85563 4.77193C4.08284 4.22419 4.41621 3.72683 4.83653 3.30853C5.25684 2.89023 5.7558 2.55926 6.30463 2.33469C6.85346 2.11013 7.44131 1.9964 8.03429 2.00009C10.5086 2.01848 12.4878 4.07517 12.4878 6.55645V6.99996C12.4878 9.23844 12.9561 10.5374 13.3686 11.2473C13.4131 11.3232 13.4367 11.4094 13.4372 11.4974C13.4377 11.5853 13.4149 11.6718 13.3713 11.7481C13.3277 11.8244 13.2647 11.8879 13.1887 11.9321C13.1127 11.9763 13.0264 11.9997 12.9385 12H3.06149C2.97357 11.9997 2.88726 11.9763 2.81127 11.9321C2.73528 11.8879 2.6723 11.8244 2.62868 11.748C2.58507 11.6717 2.56236 11.5852 2.56284 11.4973C2.56333 11.4093 2.58699 11.3231 2.63145 11.2472C3.04416 10.5373 3.5127 9.23832 3.5127 6.99996L3.5127 6.49996Z" stroke="#A1A2A3" stroke-linecap="round" stroke-linejoin="round"/>
</svg>
