<svg width="150" height="146" viewBox="0 0 150 146" fill="none" xmlns="http://www.w3.org/2000/svg">
<path fill-rule="evenodd" clip-rule="evenodd" d="M129.448 72.9282C129.448 104.143 104.143 129.448 72.9282 129.448C50.1598 129.448 30.5358 115.984 21.5828 96.5848L52.21 65.4715L67.9558 97.792L104.42 62.9853L96.9613 103.593L126.457 54.7402C128.396 60.4478 129.448 66.5652 129.448 72.9282ZM118.887 40.023L74.5856 74.5875L46.4088 39.7809L18.2972 87.4703C17.0653 82.8303 16.4088 77.9559 16.4088 72.9282C16.4088 41.7134 41.7134 16.4088 72.9282 16.4088C91.8673 16.4088 108.631 25.7242 118.887 40.023ZM131.833 29.9222C118.566 11.7823 97.1232 0 72.9282 0C32.6511 0 0 32.6511 0 72.9282C0 84.6378 2.75972 95.7028 7.66423 105.508L0 118.51L9.46906 108.891C22.0058 130.965 45.728 145.856 72.9282 145.856C113.205 145.856 145.856 113.205 145.856 72.9282C145.856 60.1332 142.561 48.1077 136.773 37.6542L150 15.7477L131.833 29.9222Z" fill="white"/>
</svg>
