<svg width="18" height="18" viewBox="0 0 18 18" fill="none" xmlns="http://www.w3.org/2000/svg">
<path d="M4.05001 1.7998C3.69197 1.7998 3.34859 1.94204 3.09542 2.19521C2.84224 2.44838 2.70001 2.79176 2.70001 3.1498V14.8498C2.70001 15.2078 2.84224 15.5512 3.09542 15.8044C3.34859 16.0576 3.69197 16.1998 4.05001 16.1998H10.35C10.7081 16.1998 11.0514 16.0576 11.3046 15.8044C11.5578 15.5512 11.7 15.2078 11.7 14.8498V13.4998C11.7 13.3805 11.6526 13.266 11.5682 13.1816C11.4838 13.0972 11.3694 13.0498 11.25 13.0498C10.8783 13.0498 10.6407 12.958 10.4796 12.8374C10.3149 12.7141 10.1898 12.5296 10.098 12.2767C9.90541 11.7475 9.90001 11.0464 9.90001 10.3498C9.9 10.2906 9.88831 10.232 9.86561 10.1773C9.8429 10.1227 9.80964 10.073 9.76771 10.0312L9.51031 9.7729L8.41861 8.6812C7.99831 8.2609 7.87501 7.9792 7.85161 7.8217C7.83361 7.6957 7.87141 7.6111 7.96141 7.5247C8.15401 7.3402 8.29171 7.2151 8.44741 7.1773C8.54011 7.1539 8.75161 7.1377 9.13141 7.5175L11.8314 10.2175C11.9158 10.302 12.0303 10.3495 12.1497 10.3496C12.2088 10.3496 12.2674 10.338 12.322 10.3155C12.3767 10.2929 12.4263 10.2597 12.4682 10.218C12.51 10.1762 12.5432 10.1266 12.5659 10.072C12.5885 10.0173 12.6002 9.9588 12.6003 9.89967C12.6003 9.84054 12.5887 9.78199 12.5661 9.72734C12.5435 9.6727 12.5104 9.62304 12.4686 9.5812L11.7 8.8135V6.0361L14.004 8.3401C14.1295 8.46545 14.2291 8.6143 14.297 8.77815C14.365 8.942 14.4 9.11763 14.4 9.295V15.7498C14.4 15.8692 14.4474 15.9836 14.5318 16.068C14.6162 16.1524 14.7307 16.1998 14.85 16.1998C14.9694 16.1998 15.0838 16.1524 15.1682 16.068C15.2526 15.9836 15.3 15.8692 15.3 15.7498V9.295C15.2999 8.69854 15.0629 8.12653 14.6412 7.7047L11.7 4.7635V3.1498C11.7 2.79176 11.5578 2.44838 11.3046 2.19521C11.0514 1.94204 10.7081 1.7998 10.35 1.7998H4.05001ZM10.8 4.9498V7.9135L9.76861 6.8812C9.24751 6.361 8.73001 6.1819 8.23411 6.3025C8.13669 6.32655 8.04222 6.36126 7.95241 6.406C7.55011 6.28946 7.12621 6.26809 6.71422 6.34356C6.30223 6.41904 5.91344 6.58929 5.57857 6.84088C5.2437 7.09247 4.97194 7.41849 4.78475 7.79318C4.59756 8.16787 4.50008 8.58096 4.50001 8.9998C4.49998 9.52176 4.65123 10.0325 4.93546 10.4703C5.21969 10.9081 5.62472 11.2541 6.10152 11.4664C6.57832 11.6788 7.10645 11.7484 7.62199 11.6668C8.13752 11.5852 8.61837 11.356 9.00631 11.0068C9.02161 11.527 9.07381 12.0958 9.25201 12.5845C9.38521 12.9508 9.59761 13.3009 9.93961 13.5565L9.94501 13.5619C9.67096 13.6481 9.43154 13.8195 9.26158 14.0511C9.09163 14.2827 8.99999 14.5625 9.00001 14.8498V15.2998H5.40001V14.8498C5.40001 14.4918 5.25778 14.1484 5.00461 13.8952C4.75143 13.642 4.40805 13.4998 4.05001 13.4998H3.60001V4.4998H4.05001C4.40805 4.4998 4.75143 4.35757 5.00461 4.1044C5.25778 3.85122 5.40001 3.50785 5.40001 3.1498V2.6998H9.00001V3.1498C9.00001 3.50785 9.14224 3.85122 9.39542 4.1044C9.64859 4.35757 9.99197 4.4998 10.35 4.4998H10.8V4.9498ZM10.8 14.8498V14.8579C10.7979 14.9758 10.7495 15.0882 10.6654 15.1709C10.5812 15.2535 10.468 15.2998 10.35 15.2998H9.90001V14.8498C9.90001 14.7305 9.94742 14.616 10.0318 14.5316C10.1162 14.4472 10.2307 14.3998 10.35 14.3998H10.8V14.8498ZM5.40001 8.9998C5.40002 8.54205 5.57443 8.10149 5.88775 7.76777C6.20107 7.43405 6.62977 7.23224 7.08661 7.2034C6.97501 7.4104 6.91831 7.6624 6.96151 7.9531C7.02541 8.3869 7.30171 8.8378 7.78141 9.3175L8.59771 10.1338C8.36337 10.4226 8.04533 10.6317 7.68732 10.7324C7.32931 10.8331 6.9489 10.8204 6.59839 10.6961C6.24788 10.5718 5.94447 10.342 5.72988 10.0382C5.51529 9.73446 5.40006 9.3717 5.40001 8.9998ZM4.50001 2.6998V3.1498C4.50001 3.26915 4.4526 3.38361 4.36821 3.468C4.28382 3.55239 4.16936 3.5998 4.05001 3.5998H3.60001V3.1498C3.60001 3.03046 3.64742 2.916 3.73181 2.83161C3.81621 2.74722 3.93066 2.6998 4.05001 2.6998H4.50001ZM3.60001 14.3998H4.05001C4.16936 14.3998 4.28382 14.4472 4.36821 14.5316C4.4526 14.616 4.50001 14.7305 4.50001 14.8498V15.2998H4.05001C3.93066 15.2998 3.81621 15.2524 3.73181 15.168C3.64742 15.0836 3.60001 14.9692 3.60001 14.8498V14.3998ZM10.8 3.5998H10.35C10.2307 3.5998 10.1162 3.55239 10.0318 3.468C9.94742 3.38361 9.90001 3.26915 9.90001 3.1498V2.6998H10.35C10.4694 2.6998 10.5838 2.74722 10.6682 2.83161C10.7526 2.916 10.8 3.03046 10.8 3.1498V3.5998Z" fill="#FF3B30"/>
</svg>
