<svg width="16" height="17" viewBox="0 0 16 17" fill="none" xmlns="http://www.w3.org/2000/svg">
<circle cx="8" cy="8.80078" r="8" fill="#A1AEDB"/>
<path fill-rule="evenodd" clip-rule="evenodd" d="M11.5771 5.22359C11.7854 5.43187 11.7854 5.76956 11.5771 5.97784L5.17713 12.3778C4.96886 12.5861 4.63117 12.5861 4.42289 12.3778C4.21461 12.1696 4.21461 11.8319 4.42289 11.6236L10.8229 5.22359C11.0312 5.01531 11.3689 5.01531 11.5771 5.22359Z" fill="white"/>
<path fill-rule="evenodd" clip-rule="evenodd" d="M4.42289 5.22359C4.63117 5.01531 4.96886 5.01531 5.17713 5.22359L11.5771 11.6236C11.7854 11.8319 11.7854 12.1696 11.5771 12.3778C11.3689 12.5861 11.0312 12.5861 10.8229 12.3778L4.42289 5.97784C4.21461 5.76956 4.21461 5.43187 4.42289 5.22359Z" fill="white"/>
</svg>
