<svg width="46" height="45" viewBox="0 0 46 45" fill="none" xmlns="http://www.w3.org/2000/svg">
<rect x="0.5" width="45" height="45" rx="8" fill="url(#paint0_linear_508_12551)"/>
<g clip-path="url(#clip0_508_12551)">
<path d="M24.5635 36C23.0107 35.5818 21.4579 35.1639 19.9051 34.7461C19.3516 34.5964 18.7998 34.4408 18.248 34.2853C18.042 34.2249 17.8261 34.2056 17.6126 34.2286C17.3991 34.2517 17.1923 34.3165 17.0039 34.4195C16.8427 34.5036 16.6894 34.6061 16.5224 34.6764C16.2287 34.8002 16.019 34.9442 16.0461 35.3273C16.0639 35.5841 15.8583 35.7419 15.5951 35.7368C14.3919 35.7131 13.1893 35.6855 11.9867 35.6452C11.6411 35.6337 11.4908 35.4424 11.5006 35.083C11.5589 32.9328 11.619 30.7825 11.6808 28.6322C11.6929 28.1859 11.701 27.7395 11.7148 27.2931C11.7275 26.8899 11.8911 26.7338 12.2943 26.7431C13.4151 26.7692 14.5359 26.797 15.6567 26.8266C16.1578 26.8404 16.2978 26.9994 16.2782 27.5056C16.2713 27.6784 16.2782 27.8483 16.2782 28.024C16.671 27.8858 17.0558 27.7245 17.4549 27.6145C18.8914 27.2194 20.3036 27.3208 21.6255 28.0044C22.4477 28.4412 23.3657 28.6667 24.2968 28.6604C25.1348 28.6558 25.9729 28.7065 26.8115 28.7209C27.9283 28.7394 28.7899 29.2059 29.3878 30.1528C29.4068 30.1833 29.4298 30.2104 29.4638 30.2576C29.7103 30.1424 29.9562 30.0272 30.2004 29.912C31.1796 29.4512 32.1547 28.9767 33.1379 28.5268C33.6362 28.2984 34.1996 28.2547 34.7272 28.4036C35.2549 28.5525 35.7123 28.8842 36.0177 29.3395C36.2677 29.7127 36.2256 29.9431 35.853 30.1839C33.1997 31.9006 30.5447 33.6155 27.8879 35.3284C27.312 35.6982 26.6467 35.8381 25.9775 35.9424C25.8888 35.9562 25.8018 35.9792 25.7137 36H24.5635ZM16.1181 33.8032C16.1538 33.8067 16.1757 33.8148 16.1884 33.8084C16.2635 33.7762 16.3367 33.7399 16.4078 33.6996C17.1237 33.2716 17.8759 33.2106 18.6702 33.4444C19.5422 33.7025 20.4182 33.9478 21.296 34.1868C22.3667 34.4777 23.4271 34.8175 24.5168 35.0226C25.5392 35.2149 26.5765 35.0698 27.4698 34.5042C29.9326 32.9456 32.369 31.3462 34.8157 29.7623C34.8865 29.7168 34.9539 29.6655 35.0414 29.6033C34.5501 29.2209 34.0554 29.1373 33.522 29.3649C33.1874 29.5083 32.8614 29.6713 32.5325 29.8256L29.7621 31.1383C29.776 31.2655 29.7932 31.3819 29.8007 31.4988C29.8341 32.0034 29.6648 32.1842 29.1608 32.1733C28.2393 32.1525 27.3191 32.1293 26.4002 32.1036C25.5708 32.0805 24.742 32.0581 23.9132 32.0247C23.5676 32.0108 23.3655 31.758 23.4357 31.4712C23.4968 31.2235 23.6719 31.1112 24.0048 31.1198C25.2892 31.1532 26.5742 31.1912 27.8586 31.2235C28.1765 31.2316 28.4921 31.2235 28.8124 31.2235C28.7145 30.4171 27.9046 29.6972 27.0269 29.654C26.4509 29.6258 25.879 29.6171 25.3053 29.5964C24.6401 29.5757 23.9743 29.5705 23.3102 29.5284C22.5487 29.48 21.8841 29.1333 21.205 28.8154C19.5923 28.0597 17.9957 28.1461 16.4406 29.0216C16.3718 29.053 16.314 29.1046 16.275 29.1694C16.2359 29.2343 16.2174 29.3094 16.2218 29.385C16.1878 30.8065 16.1434 32.2274 16.1031 33.6472C16.1052 33.6994 16.1102 33.7515 16.1181 33.8032ZM15.1568 34.7611C15.2207 32.444 15.2852 30.1021 15.3503 27.7176H12.626C12.5621 30.0451 12.4976 32.3829 12.4319 34.7611H15.1568Z" fill="white"/>
<path d="M24.124 27.4267C22.358 27.4275 20.6639 26.7269 19.4143 25.479C18.1647 24.2311 17.4618 22.538 17.4601 20.772C17.4601 17.1025 20.4551 14.1161 24.1269 14.1167C25.8931 14.1164 27.5872 14.8175 28.8367 16.0658C30.0862 17.3141 30.7889 19.0075 30.7902 20.7737C30.7897 24.4472 27.8044 27.4267 24.124 27.4267ZM24.1338 26.5138C25.269 26.5114 26.3779 26.1724 27.3204 25.5398C28.263 24.9071 28.9967 24.0092 29.4289 22.9595C29.8611 21.9099 29.9723 20.7556 29.7485 19.6427C29.5247 18.5298 28.9759 17.5083 28.1716 16.7073C27.3672 15.9063 26.3434 15.3619 25.2295 15.1427C24.1157 14.9236 22.962 15.0397 21.9141 15.4763C20.8663 15.9129 19.9714 16.6505 19.3428 17.5957C18.7141 18.5408 18.3798 19.6512 18.3822 20.7864C18.388 23.9496 20.9735 26.5236 24.1338 26.5138Z" fill="white"/>
<path d="M24.5802 10.6227C24.5802 11.3421 24.5859 12.0627 24.5802 12.782C24.5756 13.1524 24.2692 13.3718 23.9558 13.2428C23.7312 13.1495 23.6678 12.96 23.6678 12.7319C23.6713 12.0028 23.6678 11.2742 23.6678 10.5433C23.6678 9.8786 23.6678 9.21336 23.6678 8.54812C23.6678 8.19735 23.8504 7.99173 24.1338 7.99922C24.408 8.00728 24.5744 8.20484 24.5761 8.54466C24.5831 9.23755 24.5802 9.93043 24.5802 10.6227Z" fill="white"/>
<path d="M27.115 11.7717C27.115 11.4439 27.1081 11.1156 27.115 10.7879C27.1231 10.4815 27.3154 10.288 27.5827 10.2972C27.8407 10.3058 28.0175 10.493 28.0204 10.7902C28.027 11.4556 28.027 12.1207 28.0204 12.7854C28.0175 13.0797 27.8367 13.2692 27.5804 13.2761C27.3126 13.2836 27.1196 13.0906 27.115 12.7831C27.1087 12.4461 27.1156 12.1092 27.115 11.7717Z" fill="white"/>
<path d="M21.1342 11.8012C21.1342 12.1289 21.1405 12.4572 21.1342 12.7849C21.1267 13.0913 20.9355 13.286 20.6682 13.2779C20.4119 13.271 20.2322 13.0821 20.2288 12.7872C20.2218 12.1218 20.2218 11.4567 20.2288 10.7921C20.2288 10.4851 20.4257 10.2916 20.6936 10.299C20.9516 10.3065 21.1273 10.4931 21.1342 10.7903C21.1405 11.125 21.1342 11.4619 21.1342 11.8012Z" fill="white"/>
<path d="M23.085 19.2417C23.0843 19.4901 23.1738 19.7303 23.337 19.9177C23.5001 20.105 23.7258 20.2266 23.972 20.26C24.1879 20.2923 24.4097 20.2969 24.6199 20.3499C25.4343 20.5532 26.0022 21.2415 26.0834 22.0933C26.1554 22.8789 25.6924 23.7008 24.9425 24.0078C24.6349 24.1334 24.4719 24.2566 24.5093 24.6155C24.5341 24.8614 24.3112 25.0451 24.0762 25.0497C23.9612 25.0508 23.85 25.0083 23.765 24.9307C23.68 24.8532 23.6276 24.7463 23.6183 24.6316C23.6061 24.5595 23.6041 24.486 23.6126 24.4133C23.646 24.2071 23.555 24.1173 23.3649 24.0366C22.6495 23.7314 22.2625 23.1686 22.1686 22.4032C22.126 22.0524 22.3005 21.8053 22.5879 21.7829C22.865 21.761 23.0539 21.9603 23.0861 22.3076C23.1397 22.8835 23.5694 23.2729 24.1436 23.2712C24.4014 23.2702 24.6494 23.1723 24.8383 22.9968C25.0271 22.8214 25.1431 22.5813 25.1631 22.3243C25.2051 21.7644 24.8325 21.2823 24.2605 21.2144C23.8412 21.1643 23.4282 21.1274 23.066 20.8826C22.4324 20.453 22.1156 19.8493 22.1726 19.092C22.2302 18.3115 22.6444 17.7413 23.3701 17.4349C23.5688 17.3508 23.6385 17.2546 23.612 17.0559C23.605 16.9833 23.6081 16.91 23.6212 16.8382C23.6335 16.7285 23.6857 16.6271 23.7679 16.5534C23.8501 16.4797 23.9566 16.4388 24.067 16.4385C24.3031 16.4385 24.5341 16.6205 24.5076 16.8635C24.4684 17.2287 24.6487 17.3393 24.9465 17.4695C25.648 17.7753 26.0086 18.357 26.0834 19.1133C26.1157 19.441 25.9274 19.6806 25.6469 19.6944C25.3819 19.7071 25.1953 19.5078 25.1648 19.1789C25.1112 18.5937 24.6504 18.1698 24.0935 18.1923C23.8216 18.2009 23.5639 18.3154 23.3755 18.5116C23.187 18.7077 23.0827 18.9697 23.085 19.2417Z" fill="white"/>
</g>
<defs>
<linearGradient id="paint0_linear_508_12551" x1="23" y1="0" x2="23" y2="45" gradientUnits="userSpaceOnUse">
<stop stop-color="#FFD600"/>
<stop offset="1" stop-color="#FF7A00"/>
</linearGradient>
<clipPath id="clip0_508_12551">
<rect width="24.6732" height="28" fill="white" transform="translate(11.5 8)"/>
</clipPath>
</defs>
</svg>
