<svg width="46" height="45" viewBox="0 0 46 45" fill="none" xmlns="http://www.w3.org/2000/svg">
<rect x="0.5" width="45" height="45" rx="8" fill="url(#paint0_linear_508_12565)"/>
<g clip-path="url(#clip0_508_12565)">
<path d="M36.2902 25.1268L36.2902 25.1269C36.4148 25.1181 36.5345 25.0743 36.6354 25.0007C36.7338 24.9289 36.8105 24.8316 36.8573 24.7193V24.4174C36.8403 24.3877 36.8265 24.3564 36.8161 24.3238L36.8142 24.318L36.8146 24.318C36.5085 22.717 36.202 21.1159 35.8949 19.5145L35.8949 19.5145C35.4496 17.187 35.0029 14.86 34.5548 12.5334M36.2902 25.1268L34.6039 12.524M36.2902 25.1268L36.2875 25.1271C36.1575 25.1435 36.0291 25.1702 35.9028 25.1972L35.8759 25.2029C35.7582 25.2281 35.6421 25.2529 35.525 25.2703C35.3516 25.2946 35.2062 25.2616 35.0986 25.188C34.9911 25.1144 34.9168 24.9973 34.8906 24.8443C34.8426 24.564 35.0305 24.3156 35.3727 24.2453C35.4324 24.2331 35.4923 24.2193 35.5571 24.2045C35.5952 24.1957 35.635 24.1866 35.6774 24.1772L35.7248 24.1666L35.7157 24.1189C35.1452 21.1471 34.5772 18.1854 34.0056 15.2054C33.88 14.5504 33.7542 13.8946 33.6282 13.2376L33.6188 13.1887L33.57 13.1978C33.4158 13.2264 33.2627 13.2546 33.1102 13.2827C32.7983 13.3401 32.4892 13.3969 32.1802 13.456L32.1896 13.5051L32.1802 13.456C26.7481 14.4958 21.3157 15.537 15.8831 16.5797L15.8831 16.5797L15.8811 16.5802C15.7642 16.6077 15.6444 16.6205 15.5244 16.6182M36.2902 25.1268L15.5244 16.6182M34.5548 12.5334L34.6039 12.524M34.5548 12.5334C34.5548 12.5334 34.5548 12.5334 34.5548 12.5335L34.6039 12.524M34.5548 12.5334C34.5179 12.3426 34.4369 12.2107 34.3254 12.1338C34.214 12.057 34.0645 12.03 33.8802 12.0639M34.6039 12.524C34.5266 12.1242 34.2585 11.9433 33.8709 12.0148M33.8802 12.0639C33.8802 12.0639 33.8803 12.0639 33.8803 12.0639L33.8709 12.0148M33.8802 12.0639C31.2733 12.5655 28.6665 13.0661 26.0596 13.5657L26.0596 13.5657L17.0047 15.2984L17.0047 15.2984C16.8757 15.3231 16.7468 15.3472 16.618 15.3713C16.2302 15.4439 15.8435 15.5163 15.4593 15.6021L15.4576 15.6024L15.4576 15.6024C15.3322 15.6259 15.2207 15.6971 15.1467 15.8012C15.0727 15.9052 15.042 16.0339 15.061 16.1601L15.0614 16.1631L15.0613 16.1631C15.0719 16.2818 15.1244 16.3929 15.2095 16.4763C15.2943 16.5594 15.4059 16.6097 15.5244 16.6182M33.8802 12.0639C33.8801 12.0639 33.88 12.064 33.8799 12.064L33.8709 12.0148M33.8709 12.0148L15.5244 16.6182M15.5244 16.6182C15.5239 16.6182 15.5235 16.6182 15.5231 16.6182L15.5221 16.6681L15.5255 16.6183C15.5252 16.6182 15.5248 16.6182 15.5244 16.6182Z" fill="white" stroke="#2CCB73" stroke-width="0.1"/>
<path d="M10.238 18.6708H10.238L20.7826 18.6701H31.2463C31.5459 18.6701 31.7228 18.7155 31.8277 18.82C31.9325 18.9245 31.978 19.1008 31.978 19.3996V31.2293C31.978 31.515 31.9295 31.69 31.8241 31.7958C31.7186 31.9016 31.5442 31.9502 31.2592 31.9502H10.2509C9.9753 31.9502 9.80514 31.9014 9.7018 31.797C9.59832 31.6925 9.55 31.5204 9.55 31.2421V19.3596C9.55 19.086 9.59663 18.919 9.69735 18.8182C9.79805 18.7175 9.96486 18.6708 10.238 18.6708ZM10.6378 19.72L10.5878 19.72V19.77V20.0854C10.5878 20.7811 10.5879 21.4768 10.5881 22.1725C10.5886 24.9554 10.5892 27.7386 10.5806 30.5218V30.522C10.5806 30.6607 10.5987 30.765 10.6676 30.8305C10.7358 30.8952 10.8407 30.9088 10.9724 30.9088H10.9725C17.494 30.9012 24.0147 30.8993 30.5348 30.9031H30.8623H30.9123V30.8531V19.7686V19.7186L30.8623 19.7186L10.6378 19.72Z" fill="white" stroke="#2CCB73" stroke-width="0.1"/>
<path d="M32.2942 16.4317L32.2994 16.4814C32.3345 16.8151 32.3695 17.1487 32.4045 17.482C32.7559 20.8263 33.1057 24.1546 33.4607 27.5037L33.4659 27.5521L33.4175 27.5585C33.3358 27.5692 33.2571 27.5782 33.1805 27.587C33.0192 27.6054 32.8676 27.6228 32.7172 27.6531L32.7149 27.6535L32.7149 27.6535C32.6484 27.6636 32.5847 27.6871 32.5276 27.7225C32.4704 27.7579 32.4211 27.8046 32.3825 27.8596C32.3438 27.9146 32.3168 27.9769 32.3029 28.0426C32.289 28.1084 32.2885 28.1763 32.3016 28.2422L32.3018 28.2436L32.3018 28.2436C32.3238 28.3736 32.3942 28.4905 32.4988 28.5707C32.6034 28.651 32.7344 28.6887 32.8657 28.6763L32.8661 28.6763C33.2653 28.642 33.6632 28.5978 34.06 28.5435C34.2446 28.5179 34.3745 28.4489 34.4545 28.3458C34.5345 28.2425 34.5704 28.0972 34.5513 27.9073C34.465 27.0572 34.3749 26.2076 34.2849 25.358C34.2444 24.9754 34.2039 24.5929 34.1637 24.2102C33.9754 22.41 33.7859 20.6101 33.5952 18.8104L33.5951 18.8102C33.4927 17.8174 33.3866 16.8247 33.277 15.8323C33.2573 15.6665 33.1958 15.5441 33.103 15.4639C33.0102 15.3836 32.8803 15.3408 32.7144 15.3452C32.583 15.3487 32.4513 15.3628 32.3179 15.3771L32.3178 15.3772C31.7293 15.4392 31.1406 15.502 30.5523 15.5646C29.7112 15.6542 28.8709 15.7437 28.0327 15.8313L28.0327 15.8313C26.0728 16.0339 24.1131 16.2379 22.1537 16.4434C22.1537 16.4434 22.1537 16.4434 22.1537 16.4434L16.728 17.0155L16.7279 17.0155C15.744 17.1163 14.7595 17.2214 13.7764 17.3308C13.6166 17.349 13.4936 17.413 13.4121 17.5059C13.3306 17.5987 13.2873 17.7241 13.2936 17.8711L32.2942 16.4317ZM32.2942 16.4317L32.2445 16.4369M32.2942 16.4317L32.2445 16.4369M32.2445 16.4369C32.0657 16.4555 31.8875 16.4741 31.7097 16.4926M32.2445 16.4369L31.7097 16.4926M31.7097 16.4926C30.2753 16.6419 28.871 16.788 27.4673 16.9375M31.7097 16.4926L27.4673 16.9375M27.4673 16.9375C25.8354 17.1082 24.204 17.2801 22.573 17.4531L17.174 18.0252C17.174 18.0252 17.1739 18.0252 17.1739 18.0252C16.1473 18.1295 15.12 18.2357 14.0921 18.342L13.9817 18.3534C13.9817 18.3534 13.9817 18.3534 13.9817 18.3535C13.7682 18.3748 13.5997 18.3345 13.484 18.2513C13.3695 18.169 13.3009 18.0404 13.2936 17.8711L27.4673 16.9375Z" fill="white" stroke="#2CCB73" stroke-width="0.1"/>
<path d="M29.3827 22.0555L29.378 22.1052C29.6285 22.1289 29.7801 22.1839 29.8714 22.284C29.9627 22.384 30.0039 22.5399 30.0042 22.7921V27.8208C30.0042 28.0685 29.9667 28.22 29.8802 28.3186C29.7937 28.4171 29.6487 28.4735 29.4042 28.505L29.4041 28.505C29.0737 28.5483 28.8088 28.6698 28.619 28.8692C28.4291 29.0686 28.3186 29.3411 28.2881 29.6785L28.2881 29.6787C28.2734 29.8495 28.2207 29.9747 28.1352 30.0609C28.0496 30.1471 27.9256 30.2 27.757 30.2153L27.7569 30.2154C27.704 30.2203 27.6499 30.2202 27.5935 30.2202C27.5873 30.2201 27.5811 30.2201 27.5749 30.2201H27.5483H27.5217H27.4951H27.4685H27.4419H27.4153H27.3887H27.3621H27.3355H27.3089H27.2823H27.2557H27.2291H27.2025H27.1759H27.1493H27.1227H27.0961H27.0695H27.0429H27.0163H26.9897H26.9632H26.9366H26.91H26.8834H26.8568H26.8302H26.8036H26.777H26.7504H26.7238H26.6972H26.6706H26.644H26.6174H26.5908H26.5642H26.5376H26.511H26.4844H26.4578H26.4312H26.4046H26.378H26.3514H26.3248H26.2982H26.2716H26.245H26.2184H26.1918H26.1653H26.1387H26.1121H26.0855H26.0589H26.0323H26.0057H25.9791H25.9525H25.9259H25.8993H25.8727H25.8461H25.8195H25.7929H25.7663H25.7397H25.7131H25.6865H25.6599H25.6333H25.6067H25.5801H25.5535H25.5269H25.5003H25.4737H25.4471H25.4205H25.3939H25.3674H25.3408H25.3142H25.2876H25.261H25.2344H25.2078H25.1812H25.1546H25.128H25.1014H25.0748H25.0482H25.0216H24.995H24.9684H24.9418H24.9152H24.8886H24.862H24.8354H24.8088H24.7822H24.7556H24.729H24.7024H24.6758H24.6492H24.6226H24.5961H24.5695H24.5429H24.5163H24.4897H24.4631H24.4365H24.4099H24.3833H24.3567H24.3301H24.3035H24.2769H24.2503H24.2237H24.1971H24.1705H24.1439H24.1173H24.0907H24.0641H24.0375H24.0109H23.9843H23.9577H23.9311H23.9045H23.8779H23.8513H23.8247H23.7982H23.7716H23.745H23.7184H23.6918H23.6652H23.6386H23.612H23.5854H23.5588H23.5322H23.5056H23.479H23.4524H23.4258H23.3992H23.3726H23.346H23.3194H23.2928H23.2662H23.2396H23.213H23.1864H23.1598H23.1332H23.1066H23.08H23.0534H23.0268H23.0003H22.9737H22.9471H22.9205H22.8939H22.8673H22.8407H22.8141H22.7875H22.7609H22.7343H22.7077H22.6811H22.6545H22.6279H22.6013H22.5747H22.5481H22.5215H22.4949H22.4683H22.4417H22.4151H22.3885H22.3619H22.3353H22.3087H22.2821H22.2555H22.229H22.2024H22.1758H22.1492H22.1226H22.096H22.0694H22.0428H22.0162H21.9896H21.963H21.9364H21.9098H21.8832H21.8566H21.83H21.8034H21.7768H21.7502H21.7236H21.697H21.6704H21.6438H21.6172H21.5906H21.564H21.5374H21.5108H21.4842H21.4576H21.4311H21.4045H21.3779H21.3513H21.3247H21.2981H21.2715H21.2449H21.2183H21.1917H21.1651H21.1385H21.1119H21.0853H21.0587H21.0321H21.0055H20.9789H20.9523H20.9257H20.8991H20.8725H20.8459H20.8193H20.7927H20.7661H20.7395H20.7129H20.6863H20.6597H20.6332H20.6066H20.58H20.5534H20.5268H20.5002H20.4736H20.447H20.4204H20.3938H20.3672H20.3406H20.314H20.2874H20.2608H20.2342H20.2076H20.181H20.1544H20.1278H20.1012H20.0746H20.048H20.0214H19.9948H19.9682H19.9416H19.915H19.8884H19.8618H19.8353H19.8087H19.7821H19.7555H19.7289H19.7023H19.6757H19.6491H19.6225H19.5959H19.5693H19.5427H19.5161H19.4895H19.4629H19.4363H19.4097H19.3831H19.3565H19.3299H19.3033H19.2767H19.2501H19.2235H19.1969H19.1703H19.1437H19.1171H19.0905H19.064H19.0374H19.0108H18.9842H18.9576H18.931H18.9044H18.8778H18.8512H18.8246H18.798H18.7714H18.7448H18.7182H18.6916H18.665H18.6384H18.6118H18.5852H18.5586H18.532H18.5054H18.4788H18.4522H18.4256H18.399H18.3724H18.3458H18.3192H18.2926H18.2661H18.2395H18.2129H18.1863H18.1597H18.1331H18.1065H18.0799H18.0533H18.0267H18.0001H17.9735H17.9469H17.9203H17.8937H17.8671H17.8405H17.8139H17.7873H17.7607H17.7341H17.7075H17.6809H17.6543H17.6277H17.6011H17.5745H17.5479H17.5213H17.4947H17.4682H17.4416H17.415H17.3884H17.3618H17.3352H17.3086H17.282H17.2554H17.2288H17.2022H17.1756H17.149H17.1224H17.0958H17.0692H17.0426H17.016H16.9894H16.9628H16.9362H16.9096H16.883H16.8564H16.8298H16.8032H16.7766H16.75H16.7234H16.6969H16.6703H16.6437H16.6171H16.5905H16.5639H16.5373H16.5107H16.4841H16.4575H16.4309H16.4043H16.3777H16.3511H16.3245H16.2979H16.2713H16.2447H16.2181H16.1915H16.1649H16.1383H16.1117H16.0851H16.0585H16.0319H16.0053H15.9787H15.9521H15.9255H15.899H15.8724H15.8458H15.8192H15.7926H15.766H15.7394H15.7128H15.6862H15.6596H15.633H15.6064H15.5798H15.5532H15.5266H15.5H15.4734H15.4468H15.4202H15.3936H15.367H15.3404H15.3138H15.2872H15.2606H15.234H15.2074H15.1808H15.1542H15.1276H15.1011H15.0745H15.0479H15.0213H14.9947H14.9681H14.9415H14.9149H14.8883H14.8617H14.8351H14.8085H14.7819H14.7553H14.7287H14.7021H14.6755H14.6489H14.6223H14.5957H14.5691H14.5425H14.5159H14.4893H14.4627H14.4361H14.4095H14.3829H14.3563H14.3298H14.3032H14.2766H14.25H14.2234H14.1968H14.1702H14.1436H14.117H14.0904H14.0638H14.0372H14.0106H13.984L13.9574 30.2201L13.9564 30.2202C13.8866 30.2216 13.8169 30.2195 13.7474 30.2139C13.5839 30.1975 13.4651 30.1457 13.3833 30.0622C13.3012 29.9786 13.2506 29.8574 13.2348 29.6912L13.2348 29.6912C13.2016 29.3405 13.0912 29.0637 12.8959 28.8636C12.7006 28.6635 12.4258 28.5456 12.0742 28.5021C11.8623 28.4758 11.7271 28.4202 11.6434 28.3282C11.5599 28.2366 11.5191 28.0994 11.5187 27.8894L11.5188 27.8794V27.8693V27.8592V27.8491V27.8391V27.829V27.8189V27.8088V27.7987V27.7886V27.7786V27.7685V27.7584V27.7483V27.7382V27.7281V27.718V27.708V27.6979V27.6878V27.6777V27.6676V27.6575V27.6475V27.6374V27.6273V27.6172V27.6071V27.597V27.5869V27.5769V27.5668V27.5567V27.5466V27.5365V27.5264V27.5164V27.5063V27.4962V27.4861V27.476V27.4659V27.4558V27.4458V27.4357V27.4256V27.4155V27.4054V27.3953V27.3853V27.3752V27.3651V27.355V27.3449V27.3348V27.3248V27.3147V27.3046V27.2945V27.2844V27.2743V27.2642V27.2542V27.2441V27.234V27.2239V27.2138V27.2037V27.1937V27.1836V27.1735V27.1634V27.1533V27.1432V27.1331V27.1231V27.113V27.1029V27.0928V27.0827V27.0726V27.0626V27.0525V27.0424V27.0323V27.0222V27.0121V27.002V26.992V26.9819V26.9718V26.9617V26.9516V26.9415V26.9315V26.9214V26.9113V26.9012V26.8911V26.881V26.871V26.8609V26.8508V26.8407V26.8306V26.8205V26.8104V26.8004V26.7903V26.7802V26.7701V26.76V26.7499V26.7399V26.7298V26.7197V26.7096V26.6995V26.6894V26.6793V26.6693V26.6592V26.6491V26.639V26.6289V26.6188V26.6088V26.5987V26.5886V26.5785V26.5684V26.5583V26.5483V26.5382V26.5281V26.518V26.5079V26.4978V26.4877V26.4777V26.4676V26.4575V26.4474V26.4373V26.4272V26.4172V26.4071V26.397V26.3869V26.3768V26.3667V26.3566V26.3466V26.3365V26.3264V26.3163V26.3062V26.2961V26.2861V26.276V26.2659V26.2558V26.2457V26.2356V26.2255V26.2155V26.2054V26.1953V26.1852V26.1751V26.165V26.155V26.1449V26.1348V26.1247V26.1146V26.1045V26.0945V26.0844V26.0743V26.0642V26.0541V26.044V26.0339V26.0239V26.0138V26.0037V25.9936V25.9835V25.9734V25.9634V25.9533V25.9432V25.9331V25.923V25.9129V25.9028V25.8928V25.8827V25.8726V25.8625V25.8524V25.8423V25.8323V25.8222V25.8121V25.802V25.7919V25.7818V25.7717V25.7617V25.7516V25.7415V25.7314V25.7213V25.7112V25.7012V25.6911V25.681V25.6709V25.6608V25.6507V25.6407V25.6306V25.6205V25.6104V25.6003V25.5902V25.5801V25.5701V25.56V25.5499V25.5398V25.5297V25.5196V25.5096V25.4995V25.4894V25.4793V25.4692V25.4591V25.449V25.439V25.4289V25.4188V25.4087V25.3986V25.3885V25.3785V25.3684V25.3583V25.3482V25.3381V25.328V25.318V25.3079V25.2978V25.2877V25.2776V25.2675V25.2574V25.2474V25.2373V25.2272V25.2171V25.207V25.1969V25.1869V25.1768V25.1667V25.1566V25.1465V25.1364V25.1263V25.1163V25.1062V25.0961V25.086V25.0759V25.0658V25.0558V25.0457V25.0356V25.0255V25.0154V25.0053V24.9952V24.9852V24.9751V24.965V24.9549V24.9448V24.9347V24.9247V24.9146V24.9045V24.8944V24.8843V24.8742V24.8642V24.8541V24.844V24.8339V24.8238V24.8137V24.8036V24.7936V24.7835V24.7734V24.7633V24.7532V24.7431V24.7331V24.723V24.7129V24.7028V24.6927V24.6826V24.6725V24.6625V24.6524V24.6423V24.6322V24.6221V24.612V24.602V24.5919V24.5818V24.5717V24.5616V24.5515V24.5414V24.5314V24.5213V24.5112V24.5011V24.491V24.4809V24.4709V24.4608V24.4507V24.4406V24.4305V24.4204V24.4104V24.4003V24.3902V24.3801V24.37V24.3599V24.3498V24.3398V24.3297V24.3196V24.3095V24.2994V24.2893V24.2793V24.2692V24.2591V24.249V24.2389V24.2288V24.2187V24.2087V24.1986V24.1885V24.1784V24.1683V24.1582V24.1482V24.1381V24.128V24.1179V24.1078V24.0977V24.0877V24.0776V24.0675V24.0574V24.0473V24.0372V24.0271V24.0171V24.007V23.9969V23.9868V23.9767V23.9666V23.9566V23.9465V23.9364V23.9263V23.9162V23.9061V23.896V23.886V23.8759V23.8658V23.8557V23.8456V23.8355V23.8255V23.8154V23.8053V23.7952V23.7851V23.775V23.7649V23.7549V23.7448V23.7347V23.7246V23.7145V23.7044V23.6944V23.6843V23.6742V23.6641V23.654V23.6439V23.6339V23.6238V23.6137V23.6036V23.5935V23.5834V23.5733V23.5633V23.5532V23.5431V23.533V23.5229V23.5128V23.5028V23.4927V23.4826V23.4725V23.4624V23.4523V23.4422V23.4322V23.4221V23.412V23.4019V23.3918V23.3817V23.3717V23.3616V23.3515V23.3414V23.3313V23.3212V23.3111V23.3011V23.291V23.2809V23.2708V23.2607V23.2506V23.2406V23.2305V23.2204V23.2103V23.2002V23.1901V23.1801V23.17V23.1599V23.1498V23.1397V23.1296V23.1195V23.1095V23.0994V23.0893V23.0792V23.0691V23.059V23.049V23.0389V23.0288V23.0187V23.0086V22.9985V22.9884V22.9784V22.9683V22.9582V22.9481V22.938V22.9279V22.9179V22.9078V22.8977V22.8876V22.8775V22.8674V22.8573V22.8473V22.8372V22.8271V22.817V22.8069V22.7968V22.7868V22.7767V22.7666V22.7565V22.7464V22.7363V22.7263C11.5188 22.5143 11.5639 22.3725 11.6529 22.2785C11.7423 22.184 11.8847 22.1284 12.1004 22.1088L12.1005 22.1088C12.4185 22.0796 12.6861 21.959 12.8823 21.7627C13.0784 21.5665 13.2002 21.2976 13.232 20.977L13.232 20.9769C13.2536 20.757 13.3103 20.6155 13.4075 20.5276C13.5047 20.4396 13.6524 20.3963 13.8773 20.3963L13.8774 20.3963C16.1805 20.3939 18.4823 20.3932 20.7826 20.3942H20.7826H27.5763C27.8517 20.3942 28.0113 20.4307 28.1118 20.5212C28.2124 20.6118 28.2654 20.767 28.2961 21.0396C28.3256 21.3149 28.4495 21.5714 28.6468 21.7657C28.844 21.96 29.1025 22.0799 29.3781 22.1053L29.3827 22.0555ZM29.3827 22.0555C29.1185 22.0312 28.8709 21.9162 28.6819 21.7301C28.4928 21.5439 28.3741 21.298 28.3458 21.0343L29.4106 28.5545C29.9048 28.4909 30.0542 28.3214 30.0542 27.8208V22.792C30.0535 22.2814 29.8897 22.1034 29.3827 22.0555ZM12.0959 22.059C11.654 22.0991 11.4688 22.29 11.4688 22.7263V27.8895C11.4695 28.32 11.6354 28.4981 12.068 28.5517C12.756 28.6368 13.12 29.0101 13.1851 29.6959C13.218 30.0434 13.3996 30.2294 13.7429 30.2637C13.8142 30.2695 13.8858 30.2716 13.9574 30.2701H27.5749C27.5811 30.2701 27.5873 30.2701 27.5936 30.2702C27.6497 30.2702 27.7062 30.2703 27.7615 30.2651C28.1148 30.233 28.3072 30.0406 28.3379 29.683L12.0959 22.059ZM12.0959 22.059C12.7116 22.0025 13.1207 21.5935 13.1822 20.972L12.0959 22.059ZM27.2722 29.1729L27.2476 29.1731L26.9902 29.1745L26.9899 29.1745C22.8422 29.1716 18.6944 29.1731 14.5467 29.1788M27.2722 29.1729L14.1619 28.8749L14.115 28.8921C14.1548 29.0007 14.2048 29.0761 14.2792 29.1222C14.3524 29.1674 14.4413 29.1792 14.5467 29.1788M27.2722 29.1729L27.2871 29.1534M27.2722 29.1729L27.2871 29.1534M14.5467 29.1788L14.5467 29.1288L14.5468 29.1788C14.5468 29.1788 14.5468 29.1788 14.5467 29.1788ZM27.2871 29.1534C27.3091 29.1246 27.3279 29.0935 27.3434 29.0607L27.3437 29.0608M27.2871 29.1534L27.3437 29.0608M27.3437 29.0608L27.3456 29.0549M27.3437 29.0608L27.3456 29.0549M27.3456 29.0549C27.5839 28.3261 28.0654 27.8373 28.7808 27.5599L28.7813 27.5597M27.3456 29.0549L28.7813 27.5597M28.7813 27.5597C28.833 27.5391 28.8771 27.4856 28.9069 27.4341C28.9375 27.3814 28.961 27.3168 28.9614 27.2613V27.2612M28.7813 27.5597L28.9614 27.2612M28.9614 27.2612C28.9668 26.5175 28.9674 25.7731 28.968 25.0287C28.9685 24.4707 28.969 23.9127 28.9715 23.3551V23.3548M28.9614 27.2612L28.9715 23.3548M28.9715 23.3548C28.9715 23.2725 28.9599 23.2024 28.9212 23.145C28.8821 23.0871 28.8208 23.0501 28.7391 23.0216L28.7385 23.0214M28.9715 23.3548L28.7385 23.0214M28.7385 23.0214C28.4231 22.9158 28.1363 22.7385 27.9009 22.5035C27.6654 22.2685 27.4875 21.9822 27.3813 21.6669L27.3813 21.6669M28.7385 23.0214L27.3813 21.6669M27.3813 21.6669L27.3809 21.6659M27.3813 21.6669L27.3809 21.6659M27.3809 21.6659C27.3498 21.5794 27.3083 21.5193 27.2476 21.4831M27.3809 21.6659L27.2476 21.4831M28.9114 27.2609C28.9107 27.3481 28.8342 27.4847 28.7627 27.5133C28.034 27.7958 27.5413 28.2957 27.2981 29.0394L28.9114 27.2609ZM28.9114 27.2609C28.9168 26.5171 28.9174 25.7731 28.918 25.029C28.9185 24.471 28.919 23.9129 28.9215 23.3548L28.9114 27.2609ZM27.2476 21.4831C27.1884 21.4478 27.1185 21.4401 27.0419 21.4405M27.2476 21.4831L27.0419 21.4405M27.0419 21.4405L27.0421 21.4905L27.0419 21.4405ZM14.1325 21.6791C14.1325 21.6791 14.1324 21.6792 14.1324 21.6792L14.1791 21.6972L14.1325 21.6791Z" fill="white" stroke="#2CCB73" stroke-width="0.1"/>
<path d="M20.7649 27.3538C21.3054 27.3538 21.824 27.1406 22.2082 26.7605C22.5925 26.3804 22.8113 25.864 22.8171 25.3235L22.8171 25.3232L18.7566 25.3022L18.7066 25.3019C18.7066 25.3019 18.7066 25.3019 18.7066 25.3019C18.7052 25.5724 18.7574 25.8404 18.8605 26.0904C18.9635 26.3405 19.1151 26.5676 19.3067 26.7585C19.4982 26.9494 19.7258 27.1003 19.9761 27.2025C20.2265 27.3047 20.4946 27.3562 20.7649 27.3538ZM20.7649 27.3538C20.765 27.3538 20.7651 27.3538 20.7651 27.3538L20.7647 27.3038L20.7647 27.3538C20.7648 27.3538 20.7648 27.3538 20.7649 27.3538ZM23.8541 25.322C23.85 25.9333 23.6649 26.5297 23.322 27.0358C22.9791 27.5419 22.4939 27.9351 21.9277 28.1656C21.3614 28.396 20.7396 28.4535 20.1407 28.3307C19.5418 28.2079 18.9928 27.9103 18.5629 27.4756C18.1331 27.0408 17.8418 26.4884 17.7258 25.8882C17.6098 25.2879 17.6743 24.6668 17.9112 24.1032C18.1481 23.5396 18.5468 23.0589 19.0568 22.7218C19.5668 22.3847 20.1652 22.2063 20.7765 22.2092C21.5965 22.2169 22.3802 22.5484 22.9567 23.1315C23.5332 23.7146 23.8558 24.502 23.8541 25.322Z" fill="white" stroke="#2CCB73" stroke-width="0.1"/>
</g>
<defs>
<linearGradient id="paint0_linear_508_12565" x1="23" y1="0" x2="23" y2="45" gradientUnits="userSpaceOnUse">
<stop stop-color="#7EF5B1"/>
<stop offset="1" stop-color="#2CCB73"/>
</linearGradient>
<clipPath id="clip0_508_12565">
<rect width="27.4073" height="20" fill="white" transform="translate(9.5 12)"/>
</clipPath>
</defs>
</svg>
