<svg width="46" height="45" viewBox="0 0 46 45" fill="none" xmlns="http://www.w3.org/2000/svg">
<rect x="0.5" width="45" height="45" rx="8" fill="url(#paint0_linear_508_12515)"/>
<g clip-path="url(#clip0_508_12515)">
<path d="M20.1945 27.3956L22.2804 30.4748C22.7371 31.1479 23.2005 31.8172 23.6484 32.4954C24.6177 33.9617 23.8097 35.7645 22.0663 35.9801C21.1374 36.0952 20.4328 35.6377 19.9255 34.9031C18.6791 33.0981 17.4569 31.2754 16.2245 29.4601C16.1644 29.3714 16.1006 29.2842 16.0324 29.1881C15.4701 29.5364 14.8836 29.7424 14.2362 29.7615C13.7438 29.7754 13.2537 29.6891 12.7957 29.5078C12.3377 29.3265 11.9214 29.054 11.572 28.7068C11.2225 28.3596 10.9473 27.945 10.763 27.4882C10.5788 27.0314 10.4893 26.5419 10.5 26.0495C10.5323 24.8508 11.0653 23.9094 12.0448 23.2298C12.7655 22.7283 13.5023 22.251 14.2193 21.7459C14.3883 21.6281 14.5267 21.4718 14.6233 21.2898C16.0261 18.4677 17.4217 15.6426 18.8103 12.8145C19.1469 12.132 19.7173 11.7786 20.4541 11.6928C21.3837 11.5843 22.2232 11.8922 23.0201 12.3233C24.4754 13.11 25.6551 14.2251 26.6932 15.4935C28.2087 17.344 29.3935 19.3792 30.0174 21.7055C30.2813 22.6924 30.4228 23.6946 30.219 24.7159C30.1134 25.2459 29.9052 25.7284 29.5203 26.1184C29.1597 26.4889 28.6729 26.71 28.1566 26.7379C25.5766 26.9351 22.9989 27.1456 20.4196 27.3523C20.3602 27.3552 20.3001 27.375 20.1945 27.3956ZM19.4049 14.8916C19.4782 15.3175 19.5281 15.8601 19.6733 16.3747C20.5846 19.6058 22.386 22.2598 24.9652 24.3874C25.6808 24.9739 26.4762 25.4417 27.4007 25.6499C27.8898 25.7599 28.2805 25.6015 28.6273 25.2767C28.9088 25.0099 29.0511 24.6631 29.1229 24.2884C29.2571 23.5927 29.1896 22.9028 29.0415 22.2202C28.7351 20.8089 28.1104 19.5324 27.3604 18.3132C26.3516 16.6731 25.1609 15.1878 23.6213 14.0096C22.9285 13.4795 22.1902 13.0264 21.3273 12.8219C20.3434 12.5895 19.6476 13.0469 19.4804 14.0426C19.4401 14.286 19.4357 14.5345 19.4049 14.8916ZM25.1507 25.8963C21.7122 23.3815 19.479 20.1043 18.4394 16.0023C18.399 16.0756 18.3529 16.1548 18.314 16.2354C17.4291 18.0397 16.5486 19.8462 15.657 21.6469C15.5683 21.8265 15.572 21.9482 15.6856 22.1139C16.606 23.4575 17.5188 24.8046 18.424 26.1551C18.5706 26.375 18.7172 26.4168 18.9621 26.3963C20.3009 26.279 21.6411 26.1807 22.9813 26.0744C23.6968 26.0172 24.4139 25.9564 25.1507 25.8963ZM14.7721 22.688C14.061 23.1711 13.3623 23.6345 12.6738 24.1154C11.4949 24.9395 11.2398 26.3684 12.0484 27.5613C12.8652 28.7673 14.2948 29.0554 15.5031 28.2512C16.1417 27.8259 16.7729 27.389 17.4093 26.9564C17.4665 26.9168 17.52 26.8699 17.5816 26.8208L14.7721 22.688ZM16.9518 28.5767C16.9607 28.6085 16.9724 28.6394 16.987 28.6691C18.2949 30.5973 19.6041 32.5247 20.9145 34.4515C21.0071 34.5891 21.131 34.7028 21.276 34.7833C21.421 34.8639 21.5831 34.9089 21.7488 34.9148C22.2195 34.9441 22.5883 34.7521 22.8222 34.3415C23.0693 33.9089 23.0157 33.4837 22.7401 33.0775C21.5245 31.2857 20.3092 29.4934 19.0941 27.7006C18.9423 27.4806 18.6974 27.4029 18.468 27.5539C17.9584 27.8824 17.4591 28.235 16.9518 28.5767Z" fill="white"/>
<path d="M31.2586 15.6108C30.9346 15.6034 30.7542 15.4751 30.6794 15.2332C30.6002 14.9788 30.6868 14.7625 30.9096 14.6144C31.4573 14.2478 32.0094 13.893 32.5563 13.5323C33.2435 13.0821 33.93 12.631 34.6157 12.1789C34.8166 12.0469 35.0256 12.0205 35.2338 12.1451C35.442 12.2698 35.5417 12.4545 35.4845 12.6774C35.447 12.8338 35.3582 12.9732 35.2323 13.0733C34.005 13.8959 32.7675 14.7038 31.5292 15.5103C31.4442 15.5565 31.3531 15.5904 31.2586 15.6108Z" fill="white"/>
<path d="M32.178 18.1178L34.4508 18.5247C35.1333 18.6471 35.8166 18.771 36.4999 18.8913C36.8394 18.9506 37.0498 19.1911 37.0131 19.488C36.9743 19.8092 36.6803 20.0269 36.332 19.9653C34.9029 19.7112 33.4742 19.4541 32.046 19.1941C31.7036 19.131 31.5057 18.8715 31.5482 18.5811C31.5907 18.2908 31.8261 18.1053 32.178 18.1178Z" fill="white"/>
<path d="M27.9572 12.3747C28.0887 11.0951 28.2204 9.81549 28.3524 8.53589C28.389 8.17958 28.6244 7.97282 28.9492 8.00288C29.274 8.03294 29.4624 8.29615 29.4235 8.6488C29.2916 9.92693 29.1586 11.2063 29.0247 12.4869C28.9756 12.9517 28.7739 13.1614 28.4198 13.1313C28.0657 13.1013 27.9213 12.8476 27.9572 12.3747Z" fill="white"/>
<path d="M23.1154 16.9634C24.6184 16.9634 25.7343 17.7523 26.1419 18.9429C26.3387 19.5177 26.3514 20.1395 26.1784 20.7219C26.0053 21.3042 25.6551 21.8182 25.1763 22.1923C25.0498 22.2936 24.901 22.3637 24.7423 22.3968C24.5018 22.4393 24.3134 22.314 24.2152 22.0911C24.1662 21.9915 24.1508 21.8788 24.1713 21.7697C24.1917 21.6607 24.247 21.5612 24.3288 21.4862C24.3933 21.4217 24.471 21.3711 24.5407 21.3125C24.8944 21.0185 25.1259 20.6034 25.1901 20.148C25.2543 19.6927 25.1466 19.2297 24.8879 18.8494C24.6292 18.4692 24.2382 18.1989 23.7911 18.0914C23.344 17.9838 22.8728 18.0467 22.4695 18.2677C22.3962 18.3065 22.3287 18.3534 22.2547 18.3886C22.1323 18.4521 21.9901 18.4662 21.8576 18.4279C21.7251 18.3896 21.6124 18.3019 21.5426 18.1829C21.4729 18.0639 21.4516 17.9227 21.483 17.7884C21.5144 17.6541 21.5962 17.5369 21.7114 17.4612C22.1997 17.1313 22.7437 16.9656 23.1154 16.9634Z" fill="white"/>
</g>
<defs>
<linearGradient id="paint0_linear_508_12515" x1="23" y1="0" x2="23" y2="45" gradientUnits="userSpaceOnUse">
<stop stop-color="#FF416C"/>
<stop offset="0.0001" stop-color="#FF416C"/>
<stop offset="1" stop-color="#FF4B2B"/>
</linearGradient>
<clipPath id="clip0_508_12515">
<rect width="26.5183" height="28" fill="white" transform="translate(10.5 8)"/>
</clipPath>
</defs>
</svg>
