<svg width="32" height="32" viewBox="0 0 32 32" fill="none" xmlns="http://www.w3.org/2000/svg">
<path d="M16 32C24.8366 32 32 24.8366 32 16C32 7.16344 24.8366 0 16 0C7.16344 0 0 7.16344 0 16C0 24.8366 7.16344 32 16 32Z" fill="#FFDA44"/>
<path d="M16.0001 0C12.0828 0 8.49491 1.40856 5.71353 3.74587L22.9566 16L5.71353 28.2541C8.49491 30.5914 12.0828 32 16.0001 32C24.8366 32 32.0001 24.8365 32.0001 16C32.0001 7.1635 24.8366 0 16.0001 0Z" fill="#D80027"/>
<path d="M4.68628 4.68652C-1.56209 10.9349 -1.56209 21.0656 4.68628 27.314C7.26834 24.732 9.75166 22.2486 16 16.0003L4.68628 4.68652Z" fill="black"/>
<path d="M4.43632 12.3345L6.87132 14.639L9.81557 13.035L8.37651 16.0631L10.8116 18.3677L7.48695 17.9347L6.0477 20.9627L5.43226 17.667L2.10764 17.2339L5.05176 15.63L4.43632 12.3345Z" fill="#F0F0F0"/>
</svg>
